<?xml version="1.0" encoding="UTF-8"?>
<svg version="1.1" xmlns="http://www.w3.org/2000/svg" width="814" height="814">
<path d="M0 0 C0.66 0 1.32 0 2 0 C2.41660889 0.75804932 2.83321777 1.51609863 3.26245117 2.29711914 C10.8419642 16.08116977 18.4425417 29.85063289 26.20385742 43.53344727 C30.16039167 50.50872026 34.08658556 57.50044948 38 64.5 C43.01095487 73.46027848 48.04772378 82.40543491 53.10766602 91.33813477 C55.89799962 96.26793504 58.67596258 101.20416551 61.43359375 106.15234375 C67.21065634 116.51681239 73.04452492 126.83570099 79.0625 137.0625 C84.32431326 146.01073332 89.34091079 155.06674787 94.24853516 164.21337891 C98.18453669 171.53642278 102.25155354 178.77241149 106.3996582 185.97705078 C111.00878543 193.98744835 115.5219459 202.05005262 120.01733398 210.12475586 C120.56462158 211.10581299 121.11190918 212.08687012 121.67578125 213.09765625 C122.47943115 214.54615967 122.47943115 214.54615967 123.29931641 216.02392578 C124.49622633 218.11843223 125.73725762 220.18803287 127.00927734 222.23779297 C127.98501709 223.81971436 127.98501709 223.81971436 128.98046875 225.43359375 C129.58141357 226.38161865 130.1823584 227.32964355 130.80151367 228.30639648 C132.23045869 231.51795696 132.12805503 232.71445022 131 236 C130.22281426 237.69679039 129.3767879 239.36301274 128.48046875 241 C127.95912354 241.9583374 127.43777832 242.9166748 126.90063477 243.90405273 C126.33530029 244.92571533 125.76996582 245.94737793 125.1875 247 C124.60218506 248.06871338 124.01687012 249.13742676 123.41381836 250.23852539 C118.73509388 258.74948009 113.93265862 267.18716192 109.08984375 275.60546875 C105.7250061 281.4628588 102.42152499 287.35395827 99.125 293.25 C98.54057129 294.29518799 97.95614258 295.34037598 97.35400391 296.41723633 C96.1646078 298.54526011 94.97548147 300.67343469 93.78662109 302.80175781 C85.85575386 316.99885548 77.90569362 331.18460567 69.89428711 345.33642578 C65.90941754 352.37975964 61.95001133 359.43706584 58 366.5 C52.98940497 375.4593421 47.95170949 384.40281974 42.89453125 393.3359375 C38.90963226 400.37946356 34.95011394 407.43691486 31 414.5 C25.9239884 423.5759341 20.82493506 432.63843598 15.70117188 441.6875 C11.11793694 449.7827224 6.56080148 457.89190848 2 466 C-84.79 466 -171.58 466 -261 466 C-275.43066406 440.23095703 -275.43066406 440.23095703 -280.546875 431.08398438 C-286.04154985 421.26296116 -291.56170957 411.45682807 -297.10571289 401.66357422 C-301.68563509 393.56847336 -306.22967662 385.45355836 -310.76953125 377.3359375 C-314.66158037 370.38030205 -318.57333772 363.43614796 -322.5 356.5 C-327.61734803 347.46059691 -332.6993318 338.40185704 -337.76953125 329.3359375 C-341.66158037 322.38030205 -345.57333772 315.43614796 -349.5 308.5 C-354.02200805 300.51221935 -358.51957929 292.5111803 -363 284.5 C-367.60838897 276.2613997 -372.23060539 268.03086168 -376.875 259.8125 C-377.41084717 258.8635083 -377.94669434 257.9145166 -378.4987793 256.93676758 C-380.84426659 252.78823944 -383.19819525 248.64555249 -385.58984375 244.5234375 C-385.97092285 243.86496826 -386.35200195 243.20649902 -386.74462891 242.52807617 C-387.7281748 240.83284241 -388.71734192 239.14087329 -389.70703125 237.44921875 C-391 235 -391 235 -391 233 C-304.87 232.67 -218.74 232.34 -130 232 C-125.71 224.08 -121.42 216.16 -117 208 C-111.0625 197.5625 -111.0625 197.5625 -108.08984375 192.39453125 C-104.7250061 186.5371412 -101.42152499 180.64604173 -98.125 174.75 C-97.54057129 173.70481201 -96.95614258 172.65962402 -96.35400391 171.58276367 C-95.1646078 169.45473989 -93.97548147 167.32656531 -92.78662109 165.19824219 C-84.85575386 151.00114452 -76.90569362 136.81539433 -68.89428711 122.66357422 C-64.90941754 115.62024036 -60.95001133 108.56293416 -57 101.5 C-51.98940497 92.5406579 -46.95170949 83.59718026 -41.89453125 74.6640625 C-37.31749654 66.57390429 -32.77595166 58.46414983 -28.23925781 50.35131836 C-24.26254814 43.24380734 -20.26313474 36.1494999 -16.25 29.0625 C-10.780928 19.4038216 -5.37187691 9.71303252 0 0 Z " fill="#86869d" transform="translate(537,348)"/>
<path d="M0 0 C0.79779241 0.00151888 1.59558483 0.00303776 2.41755277 0.00460267 C3.80071204 -0.00734362 3.80071204 -0.00734362 5.21181393 -0.01953125 C6.2263948 -0.00787988 7.24097568 0.00377148 8.28630143 0.01577592 C9.36283898 0.01235822 10.43937652 0.00894052 11.54853642 0.00541925 C15.17402257 -0.00119576 18.7987766 0.02087701 22.42419511 0.04269242 C25.01573749 0.04382011 27.60728116 0.04318858 30.1988228 0.0409224 C35.78754591 0.03882316 41.3760825 0.05139216 46.96475869 0.07387376 C55.04505205 0.10635727 63.12525504 0.11679701 71.20560662 0.12182572 C84.31481618 0.13058413 97.42392628 0.15721445 110.53308183 0.19503617 C123.26875384 0.23174218 136.00439886 0.26006083 148.74011308 0.27706742 C149.52490475 0.27811832 150.30969641 0.27916921 151.11826964 0.28025195 C155.05526831 0.28547203 158.99226717 0.29052688 162.92926615 0.29549956 C195.59993012 0.33697857 228.27047217 0.40744178 260.94104081 0.49679399 C261.28610484 1.13024326 261.63116887 1.76369254 261.98668939 2.41633725 C263.56437676 5.31208519 265.1425969 8.20754243 266.72082597 11.10299516 C267.26364717 12.09949838 267.80646837 13.0960016 268.36573869 14.12270188 C271.96091409 20.71732906 275.59507761 27.28472415 279.31604081 33.80929399 C280.40764232 35.73221246 281.49877078 37.65539954 282.58947831 39.57882524 C283.41270585 41.03022904 283.41270585 41.03022904 284.25256425 42.51095414 C287.16611083 47.66316274 290.05282218 52.83035807 292.94104081 57.99679399 C297.42123785 66.00809856 301.91903347 74.00901458 306.44104081 81.99679399 C311.55838885 91.03619708 316.64037262 100.09493694 321.71057206 109.16085649 C325.60262118 116.11649193 329.51437854 123.06064602 333.44104081 129.99679399 C338.55838885 139.03619708 343.64037262 148.09493694 348.71057206 157.16085649 C353.13067242 165.06019326 357.57866892 172.94338983 362.03991777 180.81954789 C364.87960132 185.8367389 367.70653889 190.86063194 370.51525956 195.89523149 C371.11322343 196.96700639 371.7111873 198.03878129 372.32727128 199.14303422 C373.51533221 201.27262296 374.70316287 203.40234018 375.89074785 205.53219438 C379.84763611 212.6059017 383.89618993 219.61773555 388.09802324 226.54904008 C390.94104081 231.28679794 390.94104081 231.28679794 390.94104081 233.49679399 C304.48104081 233.49679399 218.02104081 233.49679399 128.94104081 233.49679399 C128.28104081 235.14679399 127.62104081 236.79679399 126.94104081 238.49679399 C126.09356519 240.1762693 125.2194232 241.84246426 124.32385331 243.49679399 C123.80573076 244.45513139 123.2876082 245.41346879 122.75378495 246.40084672 C122.19682939 247.42250932 121.63987382 248.44417192 121.06604081 249.49679399 C120.19483598 251.09986405 120.19483598 251.09986405 119.30603105 252.73531938 C115.137502 260.37583081 110.86868856 267.95349078 106.52893144 275.49777055 C102.66144084 282.22175843 98.85148426 288.97629094 95.06604081 295.74679399 C94.4816121 296.79198197 93.89718339 297.83716996 93.29504472 298.91403031 C92.10564862 301.04205409 90.91652229 303.17022868 89.72766191 305.2985518 C81.79599415 319.4970825 73.84424812 333.68374809 65.83313066 347.8376143 C59.49819777 359.03628912 53.22089911 370.26717424 46.94104081 381.49679399 C39.60501673 394.61504554 32.25799725 407.72648143 24.85070878 420.80465531 C21.96172361 425.90905775 19.08581623 431.02040494 16.22619706 436.14132524 C15.60486894 437.25378617 14.98354081 438.36624711 14.34338456 439.51241899 C13.15577354 441.64053726 11.96947921 443.7693911 10.78479081 445.89913774 C9.18175843 448.77171113 7.56338667 451.63509374 5.94104081 454.49679399 C5.40076249 455.47051957 4.86048417 456.44424516 4.30383378 457.44747758 C3.78063554 458.36480668 3.2574373 459.28213578 2.71838456 460.22726274 C2.25553056 461.04992631 1.79267656 461.87258988 1.31579667 462.72018266 C0.86212724 463.3064644 0.40845781 463.89274613 -0.05895919 464.49679399 C-1.04895919 464.49679399 -2.03895919 464.49679399 -3.05895919 464.49679399 C-11.22403145 450.28158905 -19.27791481 436.00682263 -27.27233809 421.69503617 C-30.21954454 416.4192225 -33.16985647 411.14514921 -36.12145919 405.87179399 C-36.70137618 404.83571 -37.28129317 403.79962602 -37.8787834 402.73214555 C-42.2865306 394.86301678 -46.72129158 387.0094171 -51.16467208 379.1603682 C-55.74459427 371.06526734 -60.2886358 362.95035235 -64.82849044 354.83273149 C-68.72053955 347.87709604 -72.63229691 340.93294195 -76.55895919 333.99679399 C-81.67630722 324.95739089 -86.75829099 315.89865103 -91.82849044 306.83273149 C-95.72053961 299.87709594 -99.6323137 292.93295153 -103.55895919 285.99679399 C-106.93954331 280.02494561 -110.31325137 274.04942152 -113.66833419 268.06320024 C-114.27201827 266.98723588 -114.87570235 265.91127152 -115.49767989 264.80270219 C-116.69378979 262.66086097 -117.88258776 260.51491804 -119.06359786 258.36471391 C-121.61586256 253.73493124 -124.18409463 249.20957138 -127.18786544 244.85616899 C-133.43721356 235.62696333 -133.43721356 235.62696333 -132.46520919 230.15304399 C-130.97858787 227.03405417 -129.35405607 224.32974555 -127.39782637 221.49777055 C-125.4127062 218.53094981 -123.70835204 215.42100456 -121.96642989 212.30709672 C-120.4525966 209.60603194 -118.90945611 206.92350908 -117.35974044 204.24288774 C-113.91905216 198.27128386 -110.54593388 192.26298391 -107.18395919 186.24679399 C-106.60001387 185.20241166 -106.01606856 184.15802934 -105.41442794 183.08199906 C-104.22451798 180.95317578 -103.03490326 178.82418744 -101.84558028 176.69503617 C-93.91471305 162.4979385 -85.96465281 148.31218831 -77.9532463 134.1603682 C-73.96837673 127.11703435 -70.00897051 120.05972815 -66.05895919 112.99679399 C-61.04836416 104.03745188 -56.01066867 95.09397425 -50.95349044 86.16085649 C-46.96859149 79.11733051 -43.00905925 72.05988682 -39.05895919 64.99679399 C-34.05604148 56.05117955 -29.02891299 47.11976983 -23.97546309 38.20260453 C-21.04434824 33.02585581 -18.13149411 27.83956969 -15.23864669 22.64132524 C-14.6037834 21.50179399 -13.96892012 20.36226274 -13.31481856 19.18820024 C-12.08705495 16.98256052 -10.86168394 14.77558679 -9.63903731 12.56710649 C-9.0840959 11.57066117 -8.5291545 10.57421586 -7.95739669 9.54757524 C-7.4693254 8.66754838 -6.98125411 7.78752152 -6.47839278 6.88082719 C-2.78113975 0.67104463 -2.78113975 0.67104463 0 0 Z " fill="#86869d" transform="translate(277.0589591860771,-0.4967939853668213)"/>
</svg>
