<?xml version="1.0" encoding="UTF-8"?>
<svg version="1.1" xmlns="http://www.w3.org/2000/svg" width="815" height="743">
<path d="M0 0 C4.25243973 1.87529607 5.84688528 4.52542713 8.125 8.4375 C12.8531279 16.28323723 17.89216289 23.89939726 23 31.5 C28.1572257 39.18717808 33.25698672 46.89086761 38.09375 54.78515625 C42.60128726 62.07944796 47.42454775 69.16739972 52.19897461 76.28820801 C57.14101678 83.66273287 62.00286756 91.07130548 66.65844727 98.63110352 C69.72468613 103.60020438 72.93660815 108.45931979 76.19262695 113.30566406 C79.23705733 117.84135232 82.22681909 122.4092387 85.1875 127 C89.52285544 133.72069331 93.87926232 140.42725703 98.25 147.125 C98.88236572 148.0941333 99.51473145 149.0632666 100.16625977 150.06176758 C101.46133364 152.04628409 102.75650035 154.03074002 104.05175781 156.01513672 C112.40907617 168.8192187 120.76100064 181.62673978 129.09082031 194.44873047 C135.71382009 204.64121674 142.3577943 214.82002419 149 225 C156.70600289 236.81037242 164.40827574 248.62308251 172.09082031 260.44873047 C178.71382009 270.64121674 185.3577943 280.82002419 192 291 C194.54186107 294.89570655 197.08352882 298.79153909 199.625 302.6875 C200.24511963 303.63794189 200.86523926 304.58838379 201.50415039 305.56762695 C204.50138694 310.16286486 207.49510662 314.76031864 210.48046875 319.36328125 C211.03694092 320.22107178 211.59341309 321.0788623 212.16674805 321.96264648 C213.24809893 323.62982936 214.32900457 325.29730112 215.40942383 326.96508789 C217.92043977 330.83323974 220.45066335 334.68565454 223.03125 338.5078125 C223.50199951 339.20583984 223.97274902 339.90386719 224.45776367 340.62304688 C225.33645574 341.92152858 226.21919618 343.21728344 227.10668945 344.50976562 C230 348.7813927 230 348.7813927 230 351 C229.33282959 351.35602295 228.66565918 351.7120459 227.97827148 352.07885742 C216.20629055 358.36871445 204.46162309 364.68542593 192.875 371.3125 C182.99587335 376.95584529 172.97124618 382.29562318 162.90936279 387.60269165 C154.36553107 392.1118597 145.88300015 396.69584941 137.5 401.5 C127.74863649 407.08833568 117.84738868 412.36112055 107.90771484 417.60351562 C99.3644378 422.11241178 90.88246375 426.69615681 82.5 431.5 C73.43297111 436.69615548 64.2421952 441.62544443 55 446.5 C45.36314989 451.58277773 35.78243034 456.7346681 26.3125 462.125 C25.3858252 462.65109863 24.45915039 463.17719727 23.50439453 463.71923828 C20.28261078 465.55123297 17.06158343 467.38398666 13.85595703 469.24414062 C12.03551732 470.29980683 10.20678208 471.33919154 8.375 472.375 C7.43398437 472.91898437 6.49296875 473.46296875 5.5234375 474.0234375 C2.3989023 475.23262295 1.20903645 474.88942379 -2 474 C-4.11174583 473.01719245 -6.19017116 471.96146849 -8.2421875 470.859375 C-9.13593079 470.38217766 -9.13593079 470.38217766 -10.04772949 469.89533997 C-11.99381516 468.85355604 -13.93446439 467.80208081 -15.875 466.75 C-17.23893879 466.01655504 -18.60303564 465.28340394 -19.96728516 464.55053711 C-28.74509693 459.82236013 -37.43986926 454.95918161 -46.09326172 450.00683594 C-54.98795688 444.94405906 -64.03068665 440.17496095 -73.08267212 435.40179443 C-82.76178018 430.29483693 -92.33417922 425.04038891 -101.83203125 419.6015625 C-108.31026569 415.90896887 -114.87177465 412.41521741 -121.5 409 C-129.07665743 405.09609948 -136.54112825 401.04793996 -143.9375 396.8125 C-153.19346853 391.51416704 -162.56739909 386.47368663 -172 381.5 C-182.4961166 375.96492886 -192.89987467 370.30806991 -203.20336914 364.41918945 C-211.37182985 359.7575759 -219.65448399 355.33518751 -228 351 C-227.08867413 346.69223271 -224.91044208 343.49583021 -222.5 339.875 C-222.01934082 339.14273193 -221.53868164 338.41046387 -221.04345703 337.65600586 C-219.96248576 336.0096216 -218.87917024 334.36477495 -217.79394531 332.72119141 C-215.18726096 328.7671762 -212.60064123 324.80013145 -210.01171875 320.83447266 C-207.83013507 317.49379801 -205.64603043 314.15478588 -203.4609375 310.81640625 C-199.13854386 304.21229771 -194.81900277 297.60632667 -190.5 291 C-189.0833465 288.83332473 -187.66667981 286.66665807 -186.25 284.5 C-185.198125 282.89125 -185.198125 282.89125 -184.125 281.25 C-180.9375 276.375 -180.9375 276.375 -177.75 271.5 C-176.6983667 269.89161255 -176.6983667 269.89161255 -175.62548828 268.25073242 C-174.20721155 266.08161288 -172.78891724 263.91250483 -171.37060547 261.7434082 C-167.8534295 256.36436401 -164.33654786 250.98512786 -160.8203125 245.60546875 C-152.98540691 233.61923259 -145.14356974 221.63758285 -137.29455566 209.6605835 C-129.55238149 197.84632877 -121.82081472 186.02516552 -114.09277344 174.20166016 C-110.56243661 168.80072254 -107.03116739 163.40039461 -103.5 158 C-102.08332895 155.8333362 -100.66666228 153.66666953 -99.25 151.5 C-95 145 -95 145 -90.75 138.5 C-90.04891113 137.4277417 -89.34782227 136.3554834 -88.62548828 135.25073242 C-87.20721155 133.08161288 -85.78891724 130.91250483 -84.37060547 128.7434082 C-80.8534295 123.36436401 -77.33654786 117.98512786 -73.8203125 112.60546875 C-65.98540691 100.61923259 -58.14356974 88.63758285 -50.29455566 76.6605835 C-44.65018982 68.04750216 -39.00995537 59.43174235 -33.375 50.8125 C-32.68801025 49.76175293 -32.00102051 48.71100586 -31.29321289 47.62841797 C-28.05819204 42.6799343 -24.82399349 37.73091579 -21.59155273 32.78074646 C-20.0722567 30.45425386 -18.5525375 28.12803784 -17.03277588 25.80184937 C-15.98220872 24.19344831 -14.93225285 22.58464802 -13.88232422 20.97583008 C-9.29594544 13.95601259 -4.66251243 6.96939202 0 0 Z " fill="#86869d" transform="translate(229,0)"/>
<path d="M0 0 C3.27514016 0.60778606 5.23804553 1.71111295 7.8359375 3.7734375 C8.92696777 4.63134888 8.92696777 4.63134888 10.04003906 5.5065918 C10.81057617 6.1231665 11.58111328 6.73974121 12.375 7.375 C13.17647461 8.00768799 13.97794922 8.64037598 14.80371094 9.29223633 C16.43669205 10.5819535 18.06756388 11.87434595 19.69628906 13.16943359 C22.30651034 15.24355813 24.92861262 17.30205114 27.55322266 19.35791016 C29.25082898 20.68814959 30.94610657 22.02129865 32.640625 23.35546875 C36.09183957 26.0727465 39.54575955 28.78657042 43 31.5 C44.16667796 32.4166523 45.33334464 33.33331895 46.5 34.25 C47.0775 34.70375 47.655 35.1575 48.25 35.625 C53.5 39.75 53.5 39.75 55.24902344 41.12426758 C56.41890016 42.04343313 57.58882223 42.96254095 58.75878906 43.8815918 C61.62671157 46.13456094 64.4939099 48.38843723 67.359375 50.64453125 C73.88985886 55.78426392 80.43749359 60.90120342 87 66 C94.12329278 71.53450443 101.22696692 77.0930816 108.31445312 82.67333984 C111.20808827 84.95086206 114.10419323 87.22524007 117 89.5 C118.16667796 90.4166523 119.33334464 91.33331895 120.5 92.25 C121.0775 92.70375 121.655 93.1575 122.25 93.625 C127.5 97.75 127.5 97.75 129.24902344 99.12426758 C130.41890016 100.04343313 131.58882223 100.96254095 132.75878906 101.8815918 C135.62671157 104.13456094 138.4939099 106.38843723 141.359375 108.64453125 C147.88985886 113.78426392 154.43749359 118.90120342 161 124 C168.12329278 129.53450443 175.22696692 135.0930816 182.31445312 140.67333984 C185.20808823 142.95086203 188.10416552 145.22527541 191 147.5 C194.45427351 150.21338743 197.90816048 152.92725354 201.359375 155.64453125 C207.88985886 160.78426392 214.43749359 165.90120342 221 171 C228.12329278 176.53450443 235.22696692 182.0930816 242.31445312 187.67333984 C245.20808827 189.95086206 248.10419323 192.22524007 251 194.5 C252.16667796 195.4166523 253.33334464 196.33331895 254.5 197.25 C255.0775 197.70375 255.655 198.1575 256.25 198.625 C261.5 202.75 261.5 202.75 263.24902344 204.12426758 C264.41890016 205.04343313 265.58882223 205.96254095 266.75878906 206.8815918 C269.62671157 209.13456094 272.4939099 211.38843723 275.359375 213.64453125 C281.88985886 218.78426392 288.43749359 223.90120342 295 229 C302.12329278 234.53450443 309.22696692 240.0930816 316.31445312 245.67333984 C319.20808827 247.95086206 322.10419323 250.22524007 325 252.5 C326.16667796 253.4166523 327.33334464 254.33331895 328.5 255.25 C329.36625 255.930625 329.36625 255.930625 330.25 256.625 C335.5 260.75 335.5 260.75 337.24902344 262.12426758 C338.41890016 263.04343313 339.58882223 263.96254095 340.75878906 264.8815918 C343.62671157 267.13456094 346.4939099 269.38843723 349.359375 271.64453125 C355.88985886 276.78426392 362.43749359 281.90120342 369 287 C376.12329278 292.53450443 383.22696692 298.0930816 390.31445312 303.67333984 C393.20808827 305.95086206 396.10419323 308.22524007 399 310.5 C400.16667796 311.4166523 401.33334464 312.33331895 402.5 313.25 C403.36625 313.930625 403.36625 313.930625 404.25 314.625 C409.5 318.75 409.5 318.75 411.24902344 320.12426758 C412.41890016 321.04343313 413.58882223 321.96254095 414.75878906 322.8815918 C417.62671157 325.13456094 420.4939099 327.38843723 423.359375 329.64453125 C429.88985886 334.78426392 436.43749359 339.90120342 443 345 C448.42678125 349.21638501 453.8477609 353.43970358 459.25 357.6875 C459.81058105 358.12819824 460.37116211 358.56889648 460.94873047 359.02294922 C463.82001288 361.28151379 466.68846801 363.54360797 469.5546875 365.80859375 C476.95627827 371.65078696 484.42630792 377.38215148 492 383 C490.49050281 387.14408545 487.57820965 389.0048862 484.0625 391.375 C482.78662869 392.26008958 481.51195308 393.14690447 480.23828125 394.03515625 C479.55330566 394.51098145 478.86833008 394.98680664 478.16259766 395.47705078 C474.31029244 398.18992953 470.53455425 401.00628958 466.75 403.8125 C460.52743727 408.41381804 454.28145872 412.97942054 448 417.5 C441.80341871 421.96015427 435.64016025 426.46249169 429.5 431 C422.6229644 436.08205078 415.70966917 441.11002797 408.76953125 446.10546875 C403.31916162 450.03392016 397.90325984 454.00705268 392.5 458 C385.6229644 463.08205078 378.70966917 468.11002797 371.76953125 473.10546875 C366.31916162 477.03392016 360.90325984 481.00705268 355.5 485 C348.6229644 490.08205078 341.70966917 495.11002797 334.76953125 500.10546875 C329.31916162 504.03392016 323.90325984 508.00705268 318.5 512 C311.6229644 517.08205078 304.70966917 522.11002797 297.76953125 527.10546875 C292.31916162 531.03392016 286.90325984 535.00705268 281.5 539 C274.6229644 544.08205078 267.70966917 549.11002797 260.76953125 554.10546875 C255.31916038 558.03392105 249.90332922 562.00714521 244.5 566 C234.6460488 573.27959514 224.71425404 580.44830513 214.77050781 587.60449219 C205.50847805 594.27234294 196.28415107 600.98677039 187.10571289 607.76928711 C181.02455095 612.25816363 174.90404491 616.68990813 168.76953125 621.10546875 C163.31916162 625.03392016 157.90325984 629.00705268 152.5 633 C145.6229644 638.08205078 138.70966917 643.11002797 131.76953125 648.10546875 C126.31916162 652.03392016 120.90325984 656.00705268 115.5 660 C108.6229644 665.08205078 101.70966917 670.11002797 94.76953125 675.10546875 C89.31916162 679.03392016 83.90325984 683.00705268 78.5 687 C71.6229644 692.08205078 64.70966917 697.11002797 57.76953125 702.10546875 C51.5191037 706.61057621 45.31674967 711.17885604 39.12084961 715.75854492 C32.88438172 720.36264443 26.61143819 724.91413727 20.30810547 729.42626953 C16.94021782 731.84371959 13.60480993 734.28236694 10.34765625 736.84765625 C9.797146 737.27780029 9.24663574 737.70794434 8.67944336 738.15112305 C7.23878483 739.28541254 5.81024325 740.43504604 4.3828125 741.5859375 C2 743 2 743 -0.14892578 742.58837891 C-0.75978027 742.39421387 -1.37063477 742.20004883 -2 742 C5.65122669 730.98918651 13.30490324 719.98021653 21 709 C26.01509191 701.84377792 31.0125114 694.67548647 36 687.5 C41.55467662 679.50850164 47.12553084 671.5286375 52.7109375 663.55859375 C57.1543154 657.21521942 61.57970045 650.85947311 66 644.5 C71.55467662 636.50850164 77.12553084 628.5286375 82.7109375 620.55859375 C87.1543154 614.21521942 91.57970045 607.85947311 96 601.5 C101.55467662 593.50850164 107.12553084 585.5286375 112.7109375 577.55859375 C117.1543154 571.21521942 121.57970045 564.85947311 126 558.5 C131.55467662 550.50850164 137.12553084 542.5286375 142.7109375 534.55859375 C147.1543154 528.21521942 151.57970045 521.85947311 156 515.5 C160.98748876 508.32451329 165.98496485 501.15626199 171 494 C175.97153613 486.90498252 180.92861084 479.80007269 185.875 472.6875 C186.53185791 471.74310059 187.18871582 470.79870117 187.86547852 469.82568359 C191.04372661 465.25504172 194.2203087 460.68325254 197.3939209 456.10939026 C198.51830838 454.48912192 199.6431837 452.86919215 200.76806641 451.24926758 C202.19178575 449.19892587 203.61466554 447.14800087 205.03662109 445.09643555 C205.67293457 444.18031494 206.30924805 443.26419434 206.96484375 442.3203125 C207.80970337 441.10239014 207.80970337 441.10239014 208.67163086 439.85986328 C210 438 210 438 211 437 C211.16478029 433.87949904 211.26376028 430.7801565 211.31982422 427.65698242 C211.35136597 426.18339516 211.35136597 426.18339516 211.38354492 424.68003845 C211.567589 415.54572892 211.67290831 406.41009735 211.75568962 397.27436352 C211.81202412 391.14405551 211.89292174 385.01640794 212.03564453 378.88745117 C212.17326039 372.95317833 212.24473247 367.02130423 212.27234268 361.08553505 C212.29361249 358.83815922 212.33721511 356.5908642 212.405056 354.34441185 C212.87690463 337.94592413 209.64027509 327.93202382 199.50846291 314.96234703 C197.54332205 312.4059114 195.85158835 309.75156591 194.16015625 307.0078125 C193.64259766 306.193125 193.12503906 305.3784375 192.59179688 304.5390625 C191.83479492 303.34410156 191.83479492 303.34410156 191.0625 302.125 C189.88674659 300.27341982 188.71096449 298.42185786 187.53515625 296.5703125 C186.95137207 295.65024414 186.36758789 294.73017578 185.76611328 293.78222656 C182.8482006 289.18552585 179.9237691 284.59297695 177 280 C175.83591646 278.1705863 174.67185398 276.34115921 173.5078125 274.51171875 C171.14932214 270.80542555 168.78984664 267.09976197 166.4296875 263.39453125 C160.44643027 253.99976771 154.47672124 244.5968409 148.53417969 235.17626953 C142.97501424 226.3678361 137.37816293 217.58344039 131.78222656 208.79833984 C128.85345187 204.19976238 125.92682309 199.59981973 123 195 C121.83334387 193.16665996 120.6666772 191.33332663 119.5 189.5 C112.5 178.5 105.5 167.5 98.5 156.5 C97.92233887 155.5922583 97.34467773 154.6845166 96.74951172 153.74926758 C95.58443052 151.91840247 94.41939136 150.0875106 93.25439453 148.2565918 C90.31381679 143.63527287 87.37247908 139.0144408 84.4296875 134.39453125 C78.44643027 124.99976771 72.47672124 115.5968409 66.53417969 106.17626953 C60.97501424 97.3678361 55.37816293 88.58344039 49.78222656 79.79833984 C46.85345187 75.19976238 43.92682309 70.59981973 41 66 C39.83334387 64.16665996 38.6666772 62.33332663 37.5 60.5 C30.5 49.5 30.5 49.5 28.74804688 46.74682617 C27.58801714 44.92399174 26.42786206 43.10123709 25.26757812 41.27856445 C22.24830338 36.53526345 19.23159134 31.79035914 16.21875 27.04296875 C15.59613281 26.06263672 14.97351563 25.08230469 14.33203125 24.07226562 C13.15152571 22.21340989 11.97177931 20.35407171 10.79296875 18.49414062 C7.64239486 13.53518243 4.42676022 8.63790582 1.08398438 3.8059082 C0 2 0 2 0 0 Z " fill="#86869d" transform="translate(323,0)"/>
<path d="M0 0 C4.05737284 1.52734164 7.85965559 3.42188901 11.6796875 5.45703125 C12.31999908 5.79598923 12.96031067 6.1349472 13.62002563 6.48417664 C15.70668409 7.5905113 17.79098953 8.70118626 19.875 9.8125 C20.95309937 10.38581055 20.95309937 10.38581055 22.05297852 10.97070312 C31.8523041 16.18424461 41.56353661 21.52526445 51.19482422 27.04418945 C59.37243324 31.70446215 67.6757056 36.10959035 76 40.5 C86.16159881 45.85944301 96.23047681 51.33396355 106.19921875 57.046875 C115.05743233 62.09443252 124.0659297 66.84367285 133.08322144 71.59848022 C142.7621441 76.70534778 152.33435819 81.95971357 161.83203125 87.3984375 C169.2410288 91.6215661 176.77467703 95.56602432 184.35522461 99.47070312 C191.36706535 103.10101068 198.26183697 106.90903748 205.125 110.8125 C206.08720459 111.35720947 207.04940918 111.90191895 208.04077148 112.46313477 C212.08783608 114.75789114 216.12349704 117.06533865 220.12109375 119.4453125 C221.25675781 120.10273437 222.39242187 120.76015625 223.5625 121.4375 C224.49191406 121.99308594 225.42132813 122.54867187 226.37890625 123.12109375 C230.08528425 124.36391797 231.43150748 123.62583187 235 122 C238.69114275 120.14236607 242.31691083 118.17867911 245.9375 116.1875 C247.00307129 115.60637451 248.06864258 115.02524902 249.16650391 114.42651367 C256.11066408 110.62624997 263.00091387 106.73761995 269.875 102.8125 C280.20600647 96.9143948 290.7048711 91.36069027 301.23303223 85.82611084 C311.01950207 80.67837508 320.70837589 75.40572376 330.30078125 69.90234375 C338.44161338 65.25707577 346.71046668 60.8718573 355 56.5 C364.24222906 51.62551864 373.43297593 46.69615272 382.5 41.5 C392.24420377 35.91576745 402.13685877 30.64365425 412.07113647 25.40856934 C421.98060253 20.18389066 431.79669767 14.83014839 441.48242188 9.19726562 C447.49422091 5.73087803 453.63777875 2.76967839 460 0 C458.32742994 3.47085917 456.33571497 6.36353227 454 9.4375 C453.60482178 9.95900635 453.20964355 10.4805127 452.80249023 11.01782227 C451.53919575 12.68180054 450.27050106 14.34151901 449 16 C448.59152832 16.53367187 448.18305664 17.06734375 447.76220703 17.6171875 C445.27029265 20.86966628 442.76975159 24.11542762 440.26611328 27.35888672 C438.17432793 30.07022129 436.08739443 32.78528452 434 35.5 C433.16669027 36.58335149 432.33335693 37.66668482 431.5 38.75 C431.0875 39.28625 430.675 39.8225 430.25 40.375 C415.66666667 59.33333333 401.08333333 78.29166667 386.5 97.25 C385.8817334 98.05377075 385.8817334 98.05377075 385.25097656 98.8737793 C384.4144509 99.96123001 383.57786197 101.04863207 382.74121094 102.13598633 C380.70620712 104.78093787 378.67243467 107.42681112 376.640625 110.07421875 C371.84624905 116.31787502 367.02588912 122.54038067 362.1875 128.75 C355.90305059 136.8175508 349.68354062 144.93317278 343.47998047 153.06298828 C339.66746461 158.05284325 335.8314782 163.02470368 332 168 C330.33304708 170.16644651 328.66652587 172.33322497 327 174.5 C326.16667453 175.58333938 325.3333412 176.66667272 324.5 177.75 C324.0875 178.28625 323.675 178.8225 323.25 179.375 C298.66666667 211.33333333 274.08333333 243.29166667 249.5 275.25 C249.0870166 275.78729736 248.6740332 276.32459473 248.24853516 276.87817383 C247.421722 277.95219022 246.59329161 279.02496371 245.76318359 280.09643555 C243.5646412 282.93878112 241.40509311 285.80260126 239.2890625 288.70703125 C238.84304687 289.3103125 238.39703125 289.91359375 237.9375 290.53515625 C237.08066292 291.69545647 236.2337825 292.86319469 235.3984375 294.0390625 C234.2265625 295.61328125 234.2265625 295.61328125 232 298 C230.68 298 229.36 298 228 298 C226.26041255 296.13528433 224.84114995 294.37613231 223.375 292.3125 C222.48207139 291.10394455 221.58883415 289.89561707 220.6953125 288.6875 C220.24446289 288.06875 219.79361328 287.45 219.32910156 286.8125 C217.34792931 284.11076913 215.29883248 281.46313476 213.25 278.8125 C212.41794842 277.73048439 211.58591794 276.64845254 210.75390625 275.56640625 C207.58001288 271.44933309 204.38260426 267.3506171 201.1875 263.25 C194.89729487 255.17506039 188.67187405 247.05212805 182.46240234 238.91503906 C176.41321617 230.99353383 170.31295819 223.11257831 164.1875 215.25 C157.89735631 207.175012 151.67187458 199.05212874 145.46240234 190.91503906 C139.41321617 182.99353383 133.31295819 175.11257831 127.1875 167.25 C120.89735631 159.175012 114.67187458 151.05212874 108.46240234 142.91503906 C102.41321617 134.99353383 96.31295819 127.11257831 90.1875 119.25 C83.89735631 111.175012 77.67187458 103.05212874 71.46240234 94.91503906 C65.41321617 86.99353383 59.31295819 79.11257831 53.1875 71.25 C46.89735631 63.175012 40.67187458 55.05212874 34.46240234 46.91503906 C28.93591746 39.67801945 23.37133109 32.4713142 17.77172852 25.29077148 C8.13982717 12.93327154 8.13982717 12.93327154 3.625 7 C2.91601562 6.071875 2.20703125 5.14375 1.4765625 4.1875 C0 2 0 2 0 0 Z " fill="#010101" transform="translate(0,444)"/>
<path d="M0 0 C3.27514016 0.60778606 5.23804553 1.71111295 7.8359375 3.7734375 C8.92696777 4.63134888 8.92696777 4.63134888 10.04003906 5.5065918 C10.81057617 6.1231665 11.58111328 6.73974121 12.375 7.375 C13.17647461 8.00768799 13.97794922 8.64037598 14.80371094 9.29223633 C16.43669205 10.5819535 18.06756388 11.87434595 19.69628906 13.16943359 C22.30651034 15.24355813 24.92861262 17.30205114 27.55322266 19.35791016 C29.25082898 20.68814959 30.94610657 22.02129865 32.640625 23.35546875 C36.09183957 26.0727465 39.54575955 28.78657042 43 31.5 C44.16667796 32.4166523 45.33334464 33.33331895 46.5 34.25 C47.0775 34.70375 47.655 35.1575 48.25 35.625 C53.5 39.75 53.5 39.75 55.24902344 41.12426758 C56.41890016 42.04343313 57.58882223 42.96254095 58.75878906 43.8815918 C61.62671157 46.13456094 64.4939099 48.38843723 67.359375 50.64453125 C73.88985886 55.78426392 80.43749359 60.90120342 87 66 C94.12329278 71.53450443 101.22696692 77.0930816 108.31445312 82.67333984 C111.20808827 84.95086206 114.10419323 87.22524007 117 89.5 C118.16667796 90.4166523 119.33334464 91.33331895 120.5 92.25 C121.0775 92.70375 121.655 93.1575 122.25 93.625 C127.5 97.75 127.5 97.75 129.24902344 99.12426758 C130.41890016 100.04343313 131.58882223 100.96254095 132.75878906 101.8815918 C135.62671157 104.13456094 138.4939099 106.38843723 141.359375 108.64453125 C147.88985886 113.78426392 154.43749359 118.90120342 161 124 C168.12329278 129.53450443 175.22696692 135.0930816 182.31445312 140.67333984 C185.20808823 142.95086203 188.10416552 145.22527541 191 147.5 C194.45427351 150.21338743 197.90816048 152.92725354 201.359375 155.64453125 C207.88985886 160.78426392 214.43749359 165.90120342 221 171 C228.12329278 176.53450443 235.22696692 182.0930816 242.31445312 187.67333984 C245.20808827 189.95086206 248.10419323 192.22524007 251 194.5 C252.16667796 195.4166523 253.33334464 196.33331895 254.5 197.25 C255.0775 197.70375 255.655 198.1575 256.25 198.625 C261.5 202.75 261.5 202.75 263.24902344 204.12426758 C264.41890016 205.04343313 265.58882223 205.96254095 266.75878906 206.8815918 C269.62671157 209.13456094 272.4939099 211.38843723 275.359375 213.64453125 C281.88985886 218.78426392 288.43749359 223.90120342 295 229 C302.12329278 234.53450443 309.22696692 240.0930816 316.31445312 245.67333984 C319.20808827 247.95086206 322.10419323 250.22524007 325 252.5 C326.16667796 253.4166523 327.33334464 254.33331895 328.5 255.25 C329.36625 255.930625 329.36625 255.930625 330.25 256.625 C335.5 260.75 335.5 260.75 337.24902344 262.12426758 C338.41890016 263.04343313 339.58882223 263.96254095 340.75878906 264.8815918 C343.62671157 267.13456094 346.4939099 269.38843723 349.359375 271.64453125 C355.88985886 276.78426392 362.43749359 281.90120342 369 287 C376.12329278 292.53450443 383.22696692 298.0930816 390.31445312 303.67333984 C393.20808827 305.95086206 396.10419323 308.22524007 399 310.5 C400.16667796 311.4166523 401.33334464 312.33331895 402.5 313.25 C403.36625 313.930625 403.36625 313.930625 404.25 314.625 C409.5 318.75 409.5 318.75 411.24902344 320.12426758 C412.41890016 321.04343313 413.58882223 321.96254095 414.75878906 322.8815918 C417.62671157 325.13456094 420.4939099 327.38843723 423.359375 329.64453125 C429.88985886 334.78426392 436.43749359 339.90120342 443 345 C448.42678125 349.21638501 453.8477609 353.43970358 459.25 357.6875 C459.81058105 358.12819824 460.37116211 358.56889648 460.94873047 359.02294922 C463.82001288 361.28151379 466.68846801 363.54360797 469.5546875 365.80859375 C476.95627827 371.65078696 484.42630792 377.38215148 492 383 C490.49050281 387.14408545 487.57820965 389.0048862 484.0625 391.375 C482.78662869 392.26008958 481.51195308 393.14690447 480.23828125 394.03515625 C479.55330566 394.51098145 478.86833008 394.98680664 478.16259766 395.47705078 C474.31029244 398.18992953 470.53455425 401.00628958 466.75 403.8125 C460.52743727 408.41381804 454.28145872 412.97942054 448 417.5 C441.80341871 421.96015427 435.64016025 426.46249169 429.5 431 C422.6229644 436.08205078 415.70966917 441.11002797 408.76953125 446.10546875 C403.31916162 450.03392016 397.90325984 454.00705268 392.5 458 C385.6229644 463.08205078 378.70966917 468.11002797 371.76953125 473.10546875 C366.31916162 477.03392016 360.90325984 481.00705268 355.5 485 C348.6229644 490.08205078 341.70966917 495.11002797 334.76953125 500.10546875 C329.31916162 504.03392016 323.90325984 508.00705268 318.5 512 C311.6229644 517.08205078 304.70966917 522.11002797 297.76953125 527.10546875 C292.31916162 531.03392016 286.90325984 535.00705268 281.5 539 C274.6229644 544.08205078 267.70966917 549.11002797 260.76953125 554.10546875 C255.31916038 558.03392105 249.90332922 562.00714521 244.5 566 C234.6460488 573.27959514 224.71425404 580.44830513 214.77050781 587.60449219 C205.50847805 594.27234294 196.28415107 600.98677039 187.10571289 607.76928711 C181.02455095 612.25816363 174.90404491 616.68990813 168.76953125 621.10546875 C163.31916162 625.03392016 157.90325984 629.00705268 152.5 633 C145.6229644 638.08205078 138.70966917 643.11002797 131.76953125 648.10546875 C126.31916162 652.03392016 120.90325984 656.00705268 115.5 660 C108.6229644 665.08205078 101.70966917 670.11002797 94.76953125 675.10546875 C89.31916162 679.03392016 83.90325984 683.00705268 78.5 687 C71.6229644 692.08205078 64.70966917 697.11002797 57.76953125 702.10546875 C51.5191037 706.61057621 45.31674967 711.17885604 39.12084961 715.75854492 C32.88438172 720.36264443 26.61143819 724.91413727 20.30810547 729.42626953 C16.94021782 731.84371959 13.60480993 734.28236694 10.34765625 736.84765625 C9.797146 737.27780029 9.24663574 737.70794434 8.67944336 738.15112305 C7.23878483 739.28541254 5.81024325 740.43504604 4.3828125 741.5859375 C2 743 2 743 -0.14892578 742.58837891 C-0.75978027 742.39421387 -1.37063477 742.20004883 -2 742 C5.65122669 730.98918651 13.30490324 719.98021653 21 709 C26.01509191 701.84377792 31.0125114 694.67548647 36 687.5 C41.55467662 679.50850164 47.12553084 671.5286375 52.7109375 663.55859375 C57.1543154 657.21521942 61.57970045 650.85947311 66 644.5 C71.55467662 636.50850164 77.12553084 628.5286375 82.7109375 620.55859375 C87.1543154 614.21521942 91.57970045 607.85947311 96 601.5 C101.55467662 593.50850164 107.12553084 585.5286375 112.7109375 577.55859375 C117.1543154 571.21521942 121.57970045 564.85947311 126 558.5 C131.55467662 550.50850164 137.12553084 542.5286375 142.7109375 534.55859375 C147.1543154 528.21521942 151.57970045 521.85947311 156 515.5 C160.98748876 508.32451329 165.98496485 501.15626199 171 494 C175.97153613 486.90498252 180.92861084 479.80007269 185.875 472.6875 C186.53185791 471.74310059 187.18871582 470.79870117 187.86547852 469.82568359 C191.04372661 465.25504172 194.2203087 460.68325254 197.3939209 456.10939026 C198.51830838 454.48912192 199.6431837 452.86919215 200.76806641 451.24926758 C202.19178575 449.19892587 203.61466554 447.14800087 205.03662109 445.09643555 C205.67293457 444.18031494 206.30924805 443.26419434 206.96484375 442.3203125 C207.80970337 441.10239014 207.80970337 441.10239014 208.67163086 439.85986328 C210 438 210 438 211 437 C211.16478029 433.87949904 211.26376028 430.7801565 211.31982422 427.65698242 C211.35136597 426.18339516 211.35136597 426.18339516 211.38354492 424.68003845 C211.567589 415.54572892 211.67290831 406.41009735 211.75568962 397.27436352 C211.81202412 391.14405551 211.89292174 385.01640794 212.03564453 378.88745117 C212.17326039 372.95317833 212.24473247 367.02130423 212.27234268 361.08553505 C212.29361249 358.83815922 212.33721511 356.5908642 212.405056 354.34441185 C212.87690463 337.94592413 209.64027509 327.93202382 199.50846291 314.96234703 C197.54332205 312.4059114 195.85158835 309.75156591 194.16015625 307.0078125 C193.64259766 306.193125 193.12503906 305.3784375 192.59179688 304.5390625 C191.83479492 303.34410156 191.83479492 303.34410156 191.0625 302.125 C189.88674659 300.27341982 188.71096449 298.42185786 187.53515625 296.5703125 C186.95137207 295.65024414 186.36758789 294.73017578 185.76611328 293.78222656 C182.8482006 289.18552585 179.9237691 284.59297695 177 280 C175.83591646 278.1705863 174.67185398 276.34115921 173.5078125 274.51171875 C171.14932214 270.80542555 168.78984664 267.09976197 166.4296875 263.39453125 C160.44643027 253.99976771 154.47672124 244.5968409 148.53417969 235.17626953 C142.97501424 226.3678361 137.37816293 217.58344039 131.78222656 208.79833984 C128.85345187 204.19976238 125.92682309 199.59981973 123 195 C121.83334387 193.16665996 120.6666772 191.33332663 119.5 189.5 C112.5 178.5 105.5 167.5 98.5 156.5 C97.92233887 155.5922583 97.34467773 154.6845166 96.74951172 153.74926758 C95.58443052 151.91840247 94.41939136 150.0875106 93.25439453 148.2565918 C90.31381679 143.63527287 87.37247908 139.0144408 84.4296875 134.39453125 C78.44643027 124.99976771 72.47672124 115.5968409 66.53417969 106.17626953 C60.97501424 97.3678361 55.37816293 88.58344039 49.78222656 79.79833984 C46.85345187 75.19976238 43.92682309 70.59981973 41 66 C39.83334387 64.16665996 38.6666772 62.33332663 37.5 60.5 C30.5 49.5 30.5 49.5 28.74804688 46.74682617 C27.58801714 44.92399174 26.42786206 43.10123709 25.26757812 41.27856445 C22.24830338 36.53526345 19.23159134 31.79035914 16.21875 27.04296875 C15.59613281 26.06263672 14.97351563 25.08230469 14.33203125 24.07226562 C13.15152571 22.21340989 11.97177931 20.35407171 10.79296875 18.49414062 C7.64239486 13.53518243 4.42676022 8.63790582 1.08398438 3.8059082 C0 2 0 2 0 0 Z M4 4 C8.58829662 12.20887977 13.60258582 20.08696093 18.74902344 27.95263672 C22.85648835 34.23225168 26.91477588 40.54077363 30.9375 46.875 C31.51830322 47.78942871 32.09910645 48.70385742 32.69750977 49.64599609 C33.87655892 51.50309217 35.0553509 53.36035155 36.23388672 55.21777344 C39.1517994 59.81447415 42.0762309 64.40702305 45 69 C46.16408354 70.8294137 47.32814602 72.65884079 48.4921875 74.48828125 C50.85067786 78.19457445 53.21015336 81.90023803 55.5703125 85.60546875 C61.55356973 95.00023229 67.52327876 104.4031591 73.46582031 113.82373047 C79.02498576 122.6321639 84.62183707 131.41655961 90.21777344 140.20166016 C93.14654813 144.80023762 96.07317691 149.40018027 99 154 C100.16665613 155.83334004 101.3333228 157.66667337 102.5 159.5 C109.5 170.5 116.5 181.5 123.5 192.5 C124.07766113 193.4077417 124.65532227 194.3154834 125.25048828 195.25073242 C126.41556948 197.08159753 127.58060864 198.9124894 128.74560547 200.7434082 C131.68618321 205.36472713 134.62752092 209.9855592 137.5703125 214.60546875 C143.55356973 224.00023229 149.52327876 233.4031591 155.46582031 242.82373047 C161.02498576 251.6321639 166.62183707 260.41655961 172.21777344 269.20166016 C174.56454655 272.88641541 176.90991743 276.57206194 179.25512695 280.2578125 C180.41759828 282.08471581 181.58019577 283.91153884 182.74291992 285.73828125 C185.69911255 290.38284072 188.65370381 295.0284064 191.60546875 299.67578125 C192.20552734 300.62001953 192.80558594 301.56425781 193.42382812 302.53710938 C194.53897809 304.29195776 195.65362671 306.04712492 196.76757812 307.80273438 C197.29158203 308.62708984 197.81558594 309.45144531 198.35546875 310.30078125 C198.87335968 311.14071121 199.39125061 311.98064117 199.92483521 312.84602356 C201.45301618 315.16865683 202.98600701 317.27426331 204.70956421 319.43815613 C213.92469625 331.49313711 214.64874767 341.98931142 214.49609375 356.8125 C214.50607429 359.0791984 214.5191617 361.345885 214.53517151 363.61254883 C214.55576485 368.33661169 214.53665664 373.05837499 214.48901367 377.78222656 C214.43192691 383.79190614 214.47846652 389.79554934 214.55551052 395.80482483 C214.60310843 400.47768356 214.59317188 405.14913836 214.56685066 409.82211304 C214.56142046 412.03537936 214.57362797 414.24877158 214.60497856 416.46182251 C214.77868066 431.55616225 212.40756633 440.87097985 202.39684486 452.36728287 C200.53715318 454.54100348 198.92869497 456.85809285 197.328125 459.2265625 C196.81765625 459.95552734 196.3071875 460.68449219 195.78125 461.43554688 C195.02328125 462.51932617 195.02328125 462.51932617 194.25 463.625 C193.67765625 464.44291016 193.1053125 465.26082031 192.515625 466.10351562 C187.31733406 473.53684761 182.13900057 480.9840205 176.96191406 488.43212891 C172.08558936 495.44552115 167.19134346 502.44614232 162.2890625 509.44140625 C157.8456846 515.78478058 153.42029955 522.14052689 149 528.5 C143.44532338 536.49149836 137.87446916 544.4713625 132.2890625 552.44140625 C127.8456846 558.78478058 123.42029955 565.14052689 119 571.5 C113.44532338 579.49149836 107.87446916 587.4713625 102.2890625 595.44140625 C97.8456846 601.78478058 93.42029955 608.14052689 89 614.5 C84.01251124 621.67548671 79.01503515 628.84373801 74 636 C66.30567962 646.9807786 58.65243718 657.99001024 51 669 C43.3047126 680.07164077 35.60817873 691.1422765 27.875 702.1875 C27.31232422 702.99171387 26.74964844 703.79592773 26.16992188 704.62451172 C23.17400891 708.90426454 20.16988485 713.17801768 17.15625 717.4453125 C16.20709717 718.79266479 16.20709717 718.79266479 15.23876953 720.16723633 C14.03397322 721.8772138 12.82677896 723.58550536 11.61669922 725.29174805 C8.48216651 729.74581642 5.61563572 734.22168011 3 739 C5.88003366 737.64650435 8.36624164 736.10215936 10.9140625 734.19921875 C11.66558594 733.64105469 12.41710937 733.08289063 13.19140625 732.5078125 C13.99449219 731.90710938 14.79757812 731.30640625 15.625 730.6875 C17.3458036 729.40941463 19.0671709 728.13208793 20.7890625 726.85546875 C22.09665527 725.88552979 22.09665527 725.88552979 23.43066406 724.89599609 C27.26501812 722.06650221 31.13074767 719.28148139 35 716.5 C41.19683744 712.04020634 47.35984468 707.53750466 53.5 703 C60.3770356 697.91794922 67.29033083 692.88997203 74.23046875 687.89453125 C79.68083838 683.96607984 85.09674016 679.99294732 90.5 676 C97.3770356 670.91794922 104.29033083 665.88997203 111.23046875 660.89453125 C116.68083838 656.96607984 122.09674016 652.99294732 127.5 649 C134.3770356 643.91794922 141.29033083 638.88997203 148.23046875 633.89453125 C153.68083838 629.96607984 159.09674016 625.99294732 164.5 622 C171.3770356 616.91794922 178.29033083 611.88997203 185.23046875 606.89453125 C190.68083838 602.96607984 196.09674016 598.99294732 201.5 595 C208.3770356 589.91794922 215.29033083 584.88997203 222.23046875 579.89453125 C227.68083838 575.96607984 233.09674016 571.99294732 238.5 568 C245.3770356 562.91794922 252.29033083 557.88997203 259.23046875 552.89453125 C264.68083838 548.96607984 270.09674016 544.99294732 275.5 541 C282.3770356 535.91794922 289.29033083 530.88997203 296.23046875 525.89453125 C301.68083838 521.96607984 307.09674016 517.99294732 312.5 514 C319.3770356 508.91794922 326.29033083 503.88997203 333.23046875 498.89453125 C338.68083838 494.96607984 344.09674016 490.99294732 349.5 487 C356.3770356 481.91794922 363.29033083 476.88997203 370.23046875 471.89453125 C375.68083962 467.96607895 381.09667078 463.99285479 386.5 460 C396.3539512 452.72040486 406.28574596 445.55169487 416.22949219 438.39550781 C425.49152195 431.72765706 434.71584893 425.01322961 443.89428711 418.23071289 C449.23837638 414.28591466 454.61011488 410.38192318 460 406.5 C461.46617616 405.43884398 462.93232176 404.37764574 464.3984375 403.31640625 C467.70145218 400.9280172 471.02326738 398.56785153 474.3515625 396.21484375 C476.10965568 394.95612111 477.86747491 393.69701573 479.625 392.4375 C480.46160156 391.85355469 481.29820312 391.26960938 482.16015625 390.66796875 C482.92457031 390.11625 483.68898438 389.56453125 484.4765625 388.99609375 C485.15799316 388.51325928 485.83942383 388.0304248 486.54150391 387.53295898 C488.45952804 385.86966652 488.45952804 385.86966652 488 382 C485.70807811 380.00371165 483.48222475 378.29186977 481 376.5625 C479.522615 375.49642771 478.0474154 374.42732145 476.57421875 373.35546875 C475.81415527 372.8042334 475.0540918 372.25299805 474.27099609 371.68505859 C470.6910363 369.02876076 467.25204674 366.2093713 463.8125 363.375 C458.02451608 358.62554336 452.16319482 354.00228938 446.2109375 349.4609375 C442.78049957 346.84113844 439.38918916 344.17282827 436 341.5 C431.54534934 337.98795072 427.0685777 334.50828354 422.5625 331.0625 C417.9067442 327.49992699 413.31603287 323.86423222 408.75 320.1875 C403.41696624 315.89344069 398.01719464 311.70075853 392.5625 307.5625 C386.18428039 302.72079872 379.93776155 297.74227722 373.74291992 292.66870117 C368.63398054 288.49199915 363.43675907 284.44840852 358.19140625 280.4453125 C354.8736898 277.91141293 351.59108534 275.33423081 348.3125 272.75 C342.89133229 268.4788233 337.45050885 264.2336671 332 260 C324.87662651 254.46560019 317.77303237 248.90691785 310.68554688 243.32666016 C307.20945438 240.59069744 303.73010903 237.85887106 300.2512207 235.12646484 C297.32085066 232.8245869 294.39166135 230.52123742 291.46484375 228.21484375 C285.85575921 223.79723395 280.23322504 219.40077381 274.5625 215.0625 C269.17513788 210.93945999 263.87576286 206.71354424 258.58837891 202.46337891 C254.0499493 198.82212148 249.46274157 195.25190004 244.84155273 191.71655273 C239.10817661 187.32746996 233.43727909 182.8601109 227.76611328 178.39111328 C224.84628952 176.09125763 221.92298107 173.79584055 219 171.5 C217.83331639 170.5833549 216.66664973 169.66668823 215.5 168.75 C214.9225 168.29625 214.345 167.8425 213.75 167.375 C208.5 163.25 208.5 163.25 206.75097656 161.87573242 C205.58109984 160.95656687 204.41117777 160.03745905 203.24121094 159.1184082 C200.37328843 156.86543906 197.5060901 154.61156277 194.640625 152.35546875 C188.11014114 147.21573608 181.56250641 142.09879658 175 137 C166.75322189 130.59259384 158.53681931 124.14755385 150.33203125 117.68652344 C148.63835083 116.35309555 146.94430341 115.02013619 145.25 113.6875 C144.68176514 113.24051758 144.11353027 112.79353516 143.52807617 112.33300781 C139.48675912 109.15804636 135.43051785 106.00273125 131.36987305 102.85253906 C124.40285873 97.44759261 117.47884462 91.99753476 110.61132812 86.46679688 C105.98542918 82.75526265 101.2868568 79.14754762 96.5625 75.5625 C90.15618335 70.70090171 83.88908921 65.69487597 77.67041016 60.59619141 C72.89600356 56.69395241 68.01214502 52.97239997 63.0546875 49.3046875 C58.84394892 46.12778755 54.74437205 42.81955832 50.63647461 39.51147461 C46.62898844 36.28922874 42.58757726 33.11989819 38.5 30 C33.72505384 26.34684316 29.00388333 22.63481537 24.3125 18.875 C23.68182617 18.3699292 23.05115234 17.8648584 22.40136719 17.34448242 C19.56927695 15.07295636 16.74571627 12.79236195 13.93359375 10.49609375 C13.04800781 9.77550781 12.16242188 9.05492187 11.25 8.3125 C10.49203125 7.68988281 9.7340625 7.06726563 8.953125 6.42578125 C6.95665793 4.81669624 6.95665793 4.81669624 4 4 Z " fill="#EBEBEB" transform="translate(323,0)"/>
<path d="M0 0 C4.25243973 1.87529607 5.84688528 4.52542713 8.125 8.4375 C12.8531279 16.28323723 17.89216289 23.89939726 23 31.5 C28.1572257 39.18717808 33.25698672 46.89086761 38.09375 54.78515625 C42.60128726 62.07944796 47.42454775 69.16739972 52.19897461 76.28820801 C57.14101678 83.66273287 62.00286756 91.07130548 66.65844727 98.63110352 C69.72468613 103.60020438 72.93660815 108.45931979 76.19262695 113.30566406 C79.23705733 117.84135232 82.22681909 122.4092387 85.1875 127 C89.52285544 133.72069331 93.87926232 140.42725703 98.25 147.125 C98.88236572 148.0941333 99.51473145 149.0632666 100.16625977 150.06176758 C101.46133364 152.04628409 102.75650035 154.03074002 104.05175781 156.01513672 C112.40907617 168.8192187 120.76100064 181.62673978 129.09082031 194.44873047 C135.71382009 204.64121674 142.3577943 214.82002419 149 225 C156.70600289 236.81037242 164.40827574 248.62308251 172.09082031 260.44873047 C178.71382009 270.64121674 185.3577943 280.82002419 192 291 C194.54186107 294.89570655 197.08352882 298.79153909 199.625 302.6875 C200.24511963 303.63794189 200.86523926 304.58838379 201.50415039 305.56762695 C204.50138694 310.16286486 207.49510662 314.76031864 210.48046875 319.36328125 C211.03694092 320.22107178 211.59341309 321.0788623 212.16674805 321.96264648 C213.24809893 323.62982936 214.32900457 325.29730112 215.40942383 326.96508789 C217.92043977 330.83323974 220.45066335 334.68565454 223.03125 338.5078125 C223.50199951 339.20583984 223.97274902 339.90386719 224.45776367 340.62304688 C225.33645574 341.92152858 226.21919618 343.21728344 227.10668945 344.50976562 C230 348.7813927 230 348.7813927 230 351 C229.33282959 351.35602295 228.66565918 351.7120459 227.97827148 352.07885742 C216.20629055 358.36871445 204.46162309 364.68542593 192.875 371.3125 C182.99587335 376.95584529 172.97124618 382.29562318 162.90936279 387.60269165 C154.36553107 392.1118597 145.88300015 396.69584941 137.5 401.5 C127.74863649 407.08833568 117.84738868 412.36112055 107.90771484 417.60351562 C99.3644378 422.11241178 90.88246375 426.69615681 82.5 431.5 C73.43297111 436.69615548 64.2421952 441.62544443 55 446.5 C45.36314989 451.58277773 35.78243034 456.7346681 26.3125 462.125 C25.3858252 462.65109863 24.45915039 463.17719727 23.50439453 463.71923828 C20.28261078 465.55123297 17.06158343 467.38398666 13.85595703 469.24414062 C12.03551732 470.29980683 10.20678208 471.33919154 8.375 472.375 C7.43398437 472.91898437 6.49296875 473.46296875 5.5234375 474.0234375 C2.3989023 475.23262295 1.20903645 474.88942379 -2 474 C-4.11174583 473.01719245 -6.19017116 471.96146849 -8.2421875 470.859375 C-9.13593079 470.38217766 -9.13593079 470.38217766 -10.04772949 469.89533997 C-11.99381516 468.85355604 -13.93446439 467.80208081 -15.875 466.75 C-17.23893879 466.01655504 -18.60303564 465.28340394 -19.96728516 464.55053711 C-28.74509693 459.82236013 -37.43986926 454.95918161 -46.09326172 450.00683594 C-54.98795688 444.94405906 -64.03068665 440.17496095 -73.08267212 435.40179443 C-82.76178018 430.29483693 -92.33417922 425.04038891 -101.83203125 419.6015625 C-108.31026569 415.90896887 -114.87177465 412.41521741 -121.5 409 C-129.07665743 405.09609948 -136.54112825 401.04793996 -143.9375 396.8125 C-153.19346853 391.51416704 -162.56739909 386.47368663 -172 381.5 C-182.4961166 375.96492886 -192.89987467 370.30806991 -203.20336914 364.41918945 C-211.37182985 359.7575759 -219.65448399 355.33518751 -228 351 C-227.08867413 346.69223271 -224.91044208 343.49583021 -222.5 339.875 C-222.01934082 339.14273193 -221.53868164 338.41046387 -221.04345703 337.65600586 C-219.96248576 336.0096216 -218.87917024 334.36477495 -217.79394531 332.72119141 C-215.18726096 328.7671762 -212.60064123 324.80013145 -210.01171875 320.83447266 C-207.83013507 317.49379801 -205.64603043 314.15478588 -203.4609375 310.81640625 C-199.13854386 304.21229771 -194.81900277 297.60632667 -190.5 291 C-189.0833465 288.83332473 -187.66667981 286.66665807 -186.25 284.5 C-185.198125 282.89125 -185.198125 282.89125 -184.125 281.25 C-180.9375 276.375 -180.9375 276.375 -177.75 271.5 C-176.6983667 269.89161255 -176.6983667 269.89161255 -175.62548828 268.25073242 C-174.20721155 266.08161288 -172.78891724 263.91250483 -171.37060547 261.7434082 C-167.8534295 256.36436401 -164.33654786 250.98512786 -160.8203125 245.60546875 C-152.98540691 233.61923259 -145.14356974 221.63758285 -137.29455566 209.6605835 C-129.55238149 197.84632877 -121.82081472 186.02516552 -114.09277344 174.20166016 C-110.56243661 168.80072254 -107.03116739 163.40039461 -103.5 158 C-102.08332895 155.8333362 -100.66666228 153.66666953 -99.25 151.5 C-95 145 -95 145 -90.75 138.5 C-90.04891113 137.4277417 -89.34782227 136.3554834 -88.62548828 135.25073242 C-87.20721155 133.08161288 -85.78891724 130.91250483 -84.37060547 128.7434082 C-80.8534295 123.36436401 -77.33654786 117.98512786 -73.8203125 112.60546875 C-65.98540691 100.61923259 -58.14356974 88.63758285 -50.29455566 76.6605835 C-44.65018982 68.04750216 -39.00995537 59.43174235 -33.375 50.8125 C-32.68801025 49.76175293 -32.00102051 48.71100586 -31.29321289 47.62841797 C-28.05819204 42.6799343 -24.82399349 37.73091579 -21.59155273 32.78074646 C-20.0722567 30.45425386 -18.5525375 28.12803784 -17.03277588 25.80184937 C-15.98220872 24.19344831 -14.93225285 22.58464802 -13.88232422 20.97583008 C-9.29594544 13.95601259 -4.66251243 6.96939202 0 0 Z M0 3 C-1.3273218 4.75490645 -2.56073126 6.58095461 -3.75390625 8.4296875 C-4.31266197 9.28878471 -4.31266197 9.28878471 -4.88270569 10.16523743 C-6.11581631 12.0643584 -7.33903636 13.96965276 -8.5625 15.875 C-9.42230473 17.20268962 -10.28282755 18.52991446 -11.14404297 19.85668945 C-12.91155047 22.58128845 -14.67560836 25.30807216 -16.43701172 28.03662109 C-20.14087316 33.77025197 -23.88436525 39.47780919 -27.625 45.1875 C-29.02370063 47.32665089 -30.42213811 49.46597387 -31.8203125 51.60546875 C-36.75591634 59.15668857 -41.69291302 66.70699742 -46.62988281 74.25732422 C-50.14688736 79.63612993 -53.66361266 85.01511774 -57.1796875 90.39453125 C-65.05959096 102.4495526 -72.94724864 114.49943393 -80.84222412 126.54458618 C-86.07144638 134.52325171 -91.29205229 142.50742334 -96.5 150.5 C-102.11202044 159.11270237 -107.73976768 167.71497726 -113.375 176.3125 C-119.46312043 185.60104472 -125.54803059 194.89165348 -131.625 204.1875 C-132.31980469 205.25033203 -133.01460938 206.31316406 -133.73046875 207.40820312 C-135.82041912 210.60539908 -137.91023672 213.80268176 -140 217 C-148.82651134 230.50447962 -157.6570752 244.00626386 -166.5 257.5 C-172.58732481 266.78905945 -178.6718064 276.07996227 -184.75 285.375 C-185.44939697 286.44435791 -186.14879395 287.51371582 -186.86938477 288.61547852 C-190.17281312 293.66816702 -193.47221773 298.72338793 -196.76171875 303.78515625 C-197.98689183 305.66932763 -199.21215142 307.55344275 -200.4375 309.4375 C-201.03022705 310.34959229 -201.6229541 311.26168457 -202.23364258 312.20141602 C-205.76262661 317.61667051 -209.33260368 323.00232336 -212.9375 328.3671875 C-213.56230003 329.29837151 -213.56230003 329.29837151 -214.19972229 330.24836731 C-216.24829619 333.30102548 -218.30149913 336.35036848 -220.36303711 339.39428711 C-221.0978833 340.48749268 -221.83272949 341.58069824 -222.58984375 342.70703125 C-223.57778931 344.16846558 -223.57778931 344.16846558 -224.58569336 345.65942383 C-226.1723905 347.82951133 -226.1723905 347.82951133 -226 350 C-224.99924438 350.53403442 -224.99924438 350.53403442 -223.97827148 351.07885742 C-212.20629055 357.36871445 -200.46162309 363.68542593 -188.875 370.3125 C-178.9995515 375.95374419 -168.97898918 381.29230477 -158.92044067 386.59664917 C-149.19527107 391.72820302 -139.57574859 397.0071504 -130.02954102 402.46655273 C-123.04625165 406.44654589 -115.96964386 410.2126884 -108.83447266 413.91210938 C-100.71378112 418.12724391 -92.68702979 422.50474686 -84.6640625 426.90234375 C-80.81232534 429.01309572 -76.95276965 431.10843718 -73.0859375 433.19140625 C-63.06175096 438.59211598 -53.08280377 444.05356226 -43.1875 449.6875 C-34.63442309 454.55617455 -26.00553363 459.23766381 -17.265625 463.76171875 C-14.51338222 465.1902932 -11.79943117 466.66461233 -9.109375 468.20703125 C-8.51527832 468.5436377 -7.92118164 468.88024414 -7.30908203 469.22705078 C-5.75470826 470.11352605 -4.20896001 471.0150801 -2.6640625 471.91796875 C0.53116652 473.21573772 1.72147398 472.89765877 5 472 C7.21324587 470.9808102 7.21324587 470.9808102 9.39453125 469.65625 C10.25111328 469.16060547 11.10769531 468.66496094 11.99023438 468.15429688 C12.92158203 467.60837891 13.85292969 467.06246094 14.8125 466.5 C24.43674608 460.95308234 34.17251425 455.67479159 44 450.5 C53.24304012 445.62716698 62.43305912 440.69610505 71.5 435.5 C81.25136351 429.91166432 91.15261132 424.63887945 101.09228516 419.39648438 C109.6355622 414.88758822 118.11753625 410.30384319 126.5 405.5 C136.25136351 399.91166432 146.15261132 394.63887945 156.09228516 389.39648438 C165.53938873 384.41057455 174.89392474 379.30242944 184.15307617 373.97290039 C189.8597755 370.71054597 195.62889753 367.59659454 201.45703125 364.55859375 C202.18884613 364.17583282 202.92066101 363.7930719 203.6746521 363.39871216 C207.31481081 361.4958371 210.96060576 359.60549675 214.6171875 357.734375 C215.94946442 357.04083631 217.28150704 356.34684728 218.61328125 355.65234375 C219.22984085 355.34244003 219.84640045 355.03253632 220.48164368 354.71324158 C222.96479561 353.40594011 224.8043413 352.25304028 226.53173828 350.01904297 C227.19972985 347.98892679 227.19972985 347.98892679 226.27172852 346.07495117 C225.81209717 345.40439697 225.35246582 344.73384277 224.87890625 344.04296875 C224.36344238 343.27235107 223.84797852 342.5017334 223.31689453 341.70776367 C222.73794434 340.87607666 222.15899414 340.04438965 221.5625 339.1875 C220.34197376 337.37531926 219.12194055 335.56280638 217.90234375 333.75 C217.25894043 332.80511719 216.61553711 331.86023438 215.95263672 330.88671875 C212.77931063 326.19536996 209.70740915 321.43885357 206.625 316.6875 C205.35994732 314.7470226 204.09431759 312.80692128 202.828125 310.8671875 C201.88163086 309.41650879 201.88163086 309.41650879 200.91601562 307.93652344 C200.28373047 306.9674707 199.65144531 305.99841797 199 305 C191.29544041 293.19183962 183.59429825 281.38154285 175.91357422 269.55786133 C171.78287413 263.20056399 167.64277373 256.84943484 163.5 250.5 C158.8267808 243.33757628 154.15883185 236.17179054 149.5 229 C142.98161992 218.96625775 136.44539623 208.94419458 129.90722656 198.92333984 C126.14728203 193.1602093 122.38870871 187.3961844 118.62988281 181.63232422 C115.48027505 176.80276136 112.33032703 171.97342109 109.1796875 167.14453125 C102.74911522 157.28783439 96.3247416 147.42719147 89.91357422 137.55786133 C85.78287413 131.20056399 81.64277373 124.84943484 77.5 118.5 C72.8267808 111.33757628 68.15883185 104.17179054 63.5 97 C56.34777375 85.99057835 49.17410378 74.99517333 42 64 C39.45813893 60.10429345 36.91648106 56.20845447 34.375 52.3125 C33.75343018 51.35988281 33.13186035 50.40726563 32.49145508 49.42578125 C28.96463057 44.0188158 25.44618109 38.60654039 21.93530273 33.18920898 C19.82627131 29.93793096 17.71126711 26.69058092 15.59375 23.44482422 C14.49553916 21.76016071 13.39930073 20.07421031 12.3046875 18.38720703 C10.64762097 15.83681896 8.98128556 13.29273081 7.3125 10.75 C6.5541687 9.57763794 6.5541687 9.57763794 5.78051758 8.3815918 C5.31282959 7.67301025 4.8451416 6.96442871 4.36328125 6.234375 C3.95376221 5.60756836 3.54424316 4.98076172 3.12231445 4.33496094 C2.75195068 3.89442383 2.38158691 3.45388672 2 3 C1.34 3 0.68 3 0 3 Z " fill="#EBEBEB" transform="translate(229,0)"/>
<path d="M0 0 C4.05737284 1.52734164 7.85965559 3.42188901 11.6796875 5.45703125 C12.31999908 5.79598923 12.96031067 6.1349472 13.62002563 6.48417664 C15.70668409 7.5905113 17.79098953 8.70118626 19.875 9.8125 C20.95309937 10.38581055 20.95309937 10.38581055 22.05297852 10.97070312 C31.8523041 16.18424461 41.56353661 21.52526445 51.19482422 27.04418945 C59.37243324 31.70446215 67.6757056 36.10959035 76 40.5 C86.16159881 45.85944301 96.23047681 51.33396355 106.19921875 57.046875 C115.05743233 62.09443252 124.0659297 66.84367285 133.08322144 71.59848022 C142.7621441 76.70534778 152.33435819 81.95971357 161.83203125 87.3984375 C169.2410288 91.6215661 176.77467703 95.56602432 184.35522461 99.47070312 C191.36706535 103.10101068 198.26183697 106.90903748 205.125 110.8125 C206.08720459 111.35720947 207.04940918 111.90191895 208.04077148 112.46313477 C212.08783608 114.75789114 216.12349704 117.06533865 220.12109375 119.4453125 C221.25675781 120.10273437 222.39242187 120.76015625 223.5625 121.4375 C224.49191406 121.99308594 225.42132813 122.54867187 226.37890625 123.12109375 C230.08528425 124.36391797 231.43150748 123.62583187 235 122 C238.69114275 120.14236607 242.31691083 118.17867911 245.9375 116.1875 C247.00307129 115.60637451 248.06864258 115.02524902 249.16650391 114.42651367 C256.11066408 110.62624997 263.00091387 106.73761995 269.875 102.8125 C280.20600647 96.9143948 290.7048711 91.36069027 301.23303223 85.82611084 C311.01950207 80.67837508 320.70837589 75.40572376 330.30078125 69.90234375 C338.44161338 65.25707577 346.71046668 60.8718573 355 56.5 C364.24222906 51.62551864 373.43297593 46.69615272 382.5 41.5 C392.24420377 35.91576745 402.13685877 30.64365425 412.07113647 25.40856934 C421.98060253 20.18389066 431.79669767 14.83014839 441.48242188 9.19726562 C447.49422091 5.73087803 453.63777875 2.76967839 460 0 C458.32742994 3.47085917 456.33571497 6.36353227 454 9.4375 C453.60482178 9.95900635 453.20964355 10.4805127 452.80249023 11.01782227 C451.53919575 12.68180054 450.27050106 14.34151901 449 16 C448.59152832 16.53367187 448.18305664 17.06734375 447.76220703 17.6171875 C445.27029265 20.86966628 442.76975159 24.11542762 440.26611328 27.35888672 C438.17432793 30.07022129 436.08739443 32.78528452 434 35.5 C433.16669027 36.58335149 432.33335693 37.66668482 431.5 38.75 C431.0875 39.28625 430.675 39.8225 430.25 40.375 C415.66666667 59.33333333 401.08333333 78.29166667 386.5 97.25 C385.8817334 98.05377075 385.8817334 98.05377075 385.25097656 98.8737793 C384.4144509 99.96123001 383.57786197 101.04863207 382.74121094 102.13598633 C380.70620712 104.78093787 378.67243467 107.42681112 376.640625 110.07421875 C371.84624905 116.31787502 367.02588912 122.54038067 362.1875 128.75 C355.90305059 136.8175508 349.68354062 144.93317278 343.47998047 153.06298828 C339.66746461 158.05284325 335.8314782 163.02470368 332 168 C330.33304708 170.16644651 328.66652587 172.33322497 327 174.5 C326.16667453 175.58333938 325.3333412 176.66667272 324.5 177.75 C324.0875 178.28625 323.675 178.8225 323.25 179.375 C298.66666667 211.33333333 274.08333333 243.29166667 249.5 275.25 C249.0870166 275.78729736 248.6740332 276.32459473 248.24853516 276.87817383 C247.421722 277.95219022 246.59329161 279.02496371 245.76318359 280.09643555 C243.5646412 282.93878112 241.40509311 285.80260126 239.2890625 288.70703125 C238.84304687 289.3103125 238.39703125 289.91359375 237.9375 290.53515625 C237.08066292 291.69545647 236.2337825 292.86319469 235.3984375 294.0390625 C234.2265625 295.61328125 234.2265625 295.61328125 232 298 C230.68 298 229.36 298 228 298 C226.26041255 296.13528433 224.84114995 294.37613231 223.375 292.3125 C222.48207139 291.10394455 221.58883415 289.89561707 220.6953125 288.6875 C220.24446289 288.06875 219.79361328 287.45 219.32910156 286.8125 C217.34792931 284.11076913 215.29883248 281.46313476 213.25 278.8125 C212.41794842 277.73048439 211.58591794 276.64845254 210.75390625 275.56640625 C207.58001288 271.44933309 204.38260426 267.3506171 201.1875 263.25 C194.89729487 255.17506039 188.67187405 247.05212805 182.46240234 238.91503906 C176.41321617 230.99353383 170.31295819 223.11257831 164.1875 215.25 C157.89735631 207.175012 151.67187458 199.05212874 145.46240234 190.91503906 C139.41321617 182.99353383 133.31295819 175.11257831 127.1875 167.25 C120.89735631 159.175012 114.67187458 151.05212874 108.46240234 142.91503906 C102.41321617 134.99353383 96.31295819 127.11257831 90.1875 119.25 C83.89735631 111.175012 77.67187458 103.05212874 71.46240234 94.91503906 C65.41321617 86.99353383 59.31295819 79.11257831 53.1875 71.25 C46.89735631 63.175012 40.67187458 55.05212874 34.46240234 46.91503906 C28.93591746 39.67801945 23.37133109 32.4713142 17.77172852 25.29077148 C8.13982717 12.93327154 8.13982717 12.93327154 3.625 7 C2.91601562 6.071875 2.20703125 5.14375 1.4765625 4.1875 C0 2 0 2 0 0 Z M6 5 C7.35965219 8.93253248 9.11016946 11.60145903 11.8125 14.75 C15.73442382 19.42999536 19.49481586 24.19975187 23.1875 29.0625 C27.75617522 35.06992187 32.35764969 41.04930995 37 47 C42.07336051 53.50648154 47.10267329 60.04462507 52.10546875 66.60546875 C56.04067538 71.76030359 60.01241263 76.88560544 64 82 C70.22928267 89.99044564 76.39127433 98.03062359 82.53759766 106.08496094 C88.58678383 114.00646617 94.68704181 121.88742169 100.8125 129.75 C107.09688802 137.81759914 113.31645886 145.93317211 119.52001953 154.06298828 C122.54338094 158.01999082 125.58272853 161.96467076 128.62109375 165.91015625 C130.19811979 167.95847742 131.77365859 170.00794455 133.34765625 172.05859375 C138.20904109 178.39025108 143.09596962 184.70130576 148 191 C154.70955089 199.61874349 161.38558685 208.26221876 168.01171875 216.9453125 C174.29509294 225.17774066 180.61367766 233.38067675 186.97949219 241.54956055 C191.13629488 246.88466494 195.26566888 252.23968322 199.3828125 257.60546875 C201.34614388 260.15810607 203.32301207 262.69986016 205.3046875 265.23828125 C206.17988037 266.36000732 206.17988037 266.36000732 207.07275391 267.50439453 C208.26898253 269.03638389 209.46656258 270.56731902 210.66552734 272.09716797 C213.65152628 275.92162823 216.58252922 279.77215754 219.421875 283.70703125 C219.96215332 284.45041748 220.50243164 285.19380371 221.05908203 285.9597168 C222.08167897 287.37371933 223.09361641 288.79550951 224.09326172 290.22583008 C225.59093618 292.35335333 225.59093618 292.35335333 228 295 C229.32 295 230.64 295 232 295 C233.82065651 293.08059602 235.32410467 291.24783443 236.875 289.125 C237.85387425 287.83180986 238.83305577 286.53885226 239.8125 285.24609375 C240.58787109 284.2094458 240.58787109 284.2094458 241.37890625 283.15185547 C243.58788535 280.21963532 245.85024312 277.33066255 248.11279297 274.43969727 C254.46392194 266.322606 260.73245768 258.14280241 266.984375 249.94921875 C270.44996008 245.4074668 273.93591184 240.88159833 277.421875 236.35546875 C279.29184143 233.92465826 281.15521045 231.48890965 283.015625 229.05078125 C288.6441813 221.67448254 294.29537042 214.31768459 300 207 C306.72244056 198.37557799 313.37023475 189.69576635 320 181 C327.20861094 171.54500513 334.45054763 162.1186291 341.76049805 152.74169922 C347.39380997 145.50905643 352.95875556 138.2250929 358.52001953 130.93701172 C362.33253539 125.94715675 366.1685218 120.97529632 370 116 C371.66695292 113.83355349 373.33348969 111.66678699 375 109.5 C377.46404711 106.2962603 379.92850341 103.09284059 382.39453125 99.890625 C385.94606904 95.27764215 389.49570282 90.6634001 393.02734375 86.03515625 C399.30426112 77.80956671 405.61830734 69.61497108 411.97729492 61.45263672 C419.76639275 51.45345712 427.47236535 41.39112317 435.16625977 31.31860352 C438.17322624 27.3831921 441.18948427 23.45528826 444.21728516 19.53588867 C447.90993558 14.75456001 451.54318082 9.95477415 455 5 C449.1605365 6.5986728 444.31407371 9.54037188 439.125 12.5625 C429.51855146 18.08056444 419.80029064 23.33726676 410 28.5 C400.75718397 33.37329051 391.56696441 38.30388147 382.5 43.5 C372.75166682 49.08659904 362.853882 54.35865721 352.91677856 59.59848022 C343.2378559 64.70534778 333.66564181 69.95971357 324.16796875 75.3984375 C316.74528535 79.62936704 309.19705997 83.57982263 301.60302734 87.49267578 C295.00100541 90.91144048 288.51384745 94.49312404 282.0625 98.1875 C271.11080059 104.45788855 259.98663522 110.38022157 248.82446289 116.2644043 C248.15902969 116.61552277 247.4935965 116.96664124 246.80799866 117.32839966 C244.99517146 118.28429068 243.1812189 119.23804661 241.3671875 120.19165039 C239.61135807 121.1346194 237.8584363 122.09293942 236.19238281 123.18673706 C234.3828125 124.35327148 234.3828125 124.35327148 231 126 C228.35693359 125.39770508 228.35693359 125.39770508 226 124 C224.8545874 123.44445435 224.8545874 123.44445435 223.68603516 122.87768555 C220.99667404 121.48534265 218.30851724 120.09108618 215.625 118.6875 C214.6033374 118.15406982 213.5816748 117.62063965 212.52905273 117.07104492 C204.68232921 112.94565909 196.96669228 108.61894281 189.27319336 104.21630859 C180.83236466 99.41263107 172.27400407 94.84835114 163.6875 90.3125 C154.55990078 85.49007516 145.45063011 80.64883163 136.4465332 75.59814453 C130.45274399 72.23855938 124.41879776 68.95618769 118.375 65.6875 C116.85531616 64.86523926 116.85531616 64.86523926 115.30493164 64.02636719 C110.18644795 61.25865743 105.06511363 58.49630732 99.94140625 55.73828125 C90.23583092 50.506801 80.5751456 45.21691914 71 39.75 C60.34500188 33.67289839 49.52907097 27.92103208 38.68334961 22.19458008 C29.92778475 17.56979058 21.21719705 12.87467179 12.5715332 8.04638672 C9.45111688 5.95719218 9.45111688 5.95719218 6 5 Z " fill="#EBEAEB" transform="translate(0,444)"/>
<path d="M0 0 C0 4.03381023 -1.59573562 5.49433637 -4 8.6875 C-5.11375 10.17830078 -5.11375 10.17830078 -6.25 11.69921875 C-7.11625 12.83810547 -7.11625 12.83810547 -8 14 C-8.33 13.01 -8.66 12.02 -9 11 C-7.0625 8.3125 -7.0625 8.3125 -5 6 C-6.68029297 6.88365234 -6.68029297 6.88365234 -8.39453125 7.78515625 C-9.86691725 8.54479489 -11.33958845 9.3038809 -12.8125 10.0625 C-13.55048828 10.45244141 -14.28847656 10.84238281 -15.04882812 11.24414062 C-15.76103516 11.60830078 -16.47324219 11.97246094 -17.20703125 12.34765625 C-17.8616333 12.68804932 -18.51623535 13.02844238 -19.19067383 13.37915039 C-21 14 -21 14 -24 13 C-16.08 8.71 -8.16 4.42 0 0 Z " fill="#F2F2F2" transform="translate(459,444)"/>
<path d="M0 0 C3.40165178 0.61189701 5.420027 1.85191098 8.1171875 3.984375 C8.88933594 4.59023437 9.66148437 5.19609375 10.45703125 5.8203125 C11.25496094 6.45710937 12.05289062 7.09390625 12.875 7.75 C13.66519531 8.37132812 14.45539063 8.99265625 15.26953125 9.6328125 C19.5689531 13.02370427 23.81236439 16.47215264 28 20 C27.34 20.33 26.68 20.66 26 21 C25.154375 20.34773438 24.30875 19.69546875 23.4375 19.0234375 C17.32065129 14.30928747 11.19283015 9.6142656 5 5 C4.67 5.99 4.34 6.98 4 8 C0 2.25 0 2.25 0 0 Z " fill="#F0F0F0" transform="translate(323,0)"/>
<path d="M0 0 C4.09007153 0.60388127 7.12677027 1.95217828 10.73828125 3.94140625 C12.33833008 4.81635742 12.33833008 4.81635742 13.97070312 5.70898438 C15.62489258 6.62647461 15.62489258 6.62647461 17.3125 7.5625 C18.43462891 8.17802734 19.55675781 8.79355469 20.71289062 9.42773438 C23.47857933 10.94592094 26.24073609 12.47017705 29 14 C29 14.99 29 15.98 29 17 C25.02680201 14.90764399 21.05762699 12.80790452 17.09204102 10.70117188 C15.74189156 9.98524997 14.39065608 9.27137234 13.03833008 8.55957031 C11.09689131 7.53723585 9.15945196 6.50766011 7.22265625 5.4765625 C6.61535172 5.15877838 6.00804718 4.84099426 5.38233948 4.51358032 C1.11387171 2.22774341 1.11387171 2.22774341 0 0 Z " fill="#E5E4E5" transform="translate(180,543)"/>
<path d="M0 0 C0.99 0 1.98 0 3 0 C4.74639137 2.44975726 6.29180054 4.85259731 7.8125 7.4375 C8.70066618 8.90825124 9.58998408 10.37830761 10.48046875 11.84765625 C10.91020996 12.56195801 11.33995117 13.27625977 11.78271484 14.01220703 C13.74898395 17.22307006 15.88299279 20.31323278 18.0390625 23.3984375 C19 25 19 25 19 27 C18.34 27 17.68 27 17 27 C15.75073242 25.3828125 15.75073242 25.3828125 14.35546875 23.125 C13.84306641 22.30386719 13.33066406 21.48273438 12.80273438 20.63671875 C12.26970703 19.76660156 11.73667969 18.89648438 11.1875 18 C10.66607422 17.16082031 10.14464844 16.32164063 9.60742188 15.45703125 C8.57044363 13.78699139 7.536389 12.11513236 6.50537109 10.44140625 C4.35305339 6.95078396 2.17632954 3.47569081 0 0 Z " fill="#EAEAEA" transform="translate(286,88)"/>
<path d="M0 0 C0.33 0.99 0.66 1.98 1 3 C-0.6330975 5.38085276 -2.28097151 7.54275377 -4.125 9.75 C-5.10833158 10.95184971 -6.09010739 12.15497404 -7.0703125 13.359375 C-7.55532227 13.95298828 -8.04033203 14.54660156 -8.54003906 15.15820312 C-10.81217042 18.02458422 -12.90272674 21.00389534 -15 24 C-15.99 23.67 -16.98 23.34 -18 23 C-17.20335937 22.01 -16.40671875 21.02 -15.5859375 20 C-10.28917129 13.40574301 -5.00885059 6.81760219 0 0 Z " fill="#E6E6E6" transform="translate(449,456)"/>
<path d="M0 0 C3.36398136 3.19266749 6.19970587 6.69218893 9 10.375 C9.42539063 10.92671875 9.85078125 11.4784375 10.2890625 12.046875 C13.01336327 15.60685085 15.55018243 19.2458814 18 23 C17.01 23 16.02 23 15 23 C13.23981157 21.01605881 11.68115247 19.07219963 10.125 16.9375 C9.68172363 16.34275879 9.23844727 15.74801758 8.78173828 15.13525391 C7.90683119 13.95810033 7.03610586 12.77782531 6.16992188 11.59423828 C5.20559366 10.28015998 4.22245739 8.97990539 3.234375 7.68359375 C0 3.38038793 0 3.38038793 0 0 Z " fill="#E8E8E8" transform="translate(196,697)"/>
<path d="M0 0 C0.99 0.33 1.98 0.66 3 1 C2.34 1 1.68 1 1 1 C0.66355469 1.99580078 0.66355469 1.99580078 0.3203125 3.01171875 C-1.40869847 6.92501281 -3.71703095 10.28823157 -6.125 13.8125 C-6.59292969 14.50537109 -7.06085938 15.19824219 -7.54296875 15.91210938 C-8.69112437 17.61091105 -9.84499367 19.30584864 -11 21 C-12 18 -12 18 -11.11962891 16.11474609 C-10.65991699 15.42461426 -10.20020508 14.73448242 -9.7265625 14.0234375 C-9.2315625 13.270625 -8.7365625 12.5178125 -8.2265625 11.7421875 C-7.69804687 10.96101562 -7.16953125 10.17984375 -6.625 9.375 C-6.10421875 8.58609375 -5.5834375 7.7971875 -5.046875 6.984375 C-1.23118622 1.23118622 -1.23118622 1.23118622 0 0 Z " fill="#E5E5E5" transform="translate(228,2)"/>
<path d="M0 0 C0.66 0.33 1.32 0.66 2 1 C-0.28548711 3.98395405 -2.57940717 6.96131555 -4.875 9.9375 C-5.52597656 10.78763672 -6.17695313 11.63777344 -6.84765625 12.51367188 C-7.47285156 13.32255859 -8.09804688 14.13144531 -8.7421875 14.96484375 C-9.60626221 16.08814087 -9.60626221 16.08814087 -10.48779297 17.23413086 C-12 19 -12 19 -14 20 C-12.44553627 15.122521 -9.60965254 11.6654354 -6.4375 7.75 C-5.93025391 7.11320313 -5.42300781 6.47640625 -4.90039062 5.8203125 C-1.24503968 1.24503968 -1.24503968 1.24503968 0 0 Z " fill="#ECECEC" transform="translate(314,632)"/>
<path d="M0 0 C0.33 0.99 0.66 1.98 1 3 C-0.56847344 5.51835268 -2.15634863 7.82918936 -3.9375 10.1875 C-4.41896484 10.84169922 -4.90042969 11.49589844 -5.39648438 12.16992188 C-6.58846384 13.78676531 -7.79306553 15.39428928 -9 17 C-9.33 16.01 -9.66 15.02 -10 14 C-8.43152656 11.48164732 -6.84365137 9.17081064 -5.0625 6.8125 C-4.58103516 6.15830078 -4.09957031 5.50410156 -3.60351562 4.83007812 C-2.41153616 3.21323469 -1.20693447 1.60571072 0 0 Z " fill="#E8E8E8" transform="translate(391,642)"/>
<path d="M0 0 C0.33 0.99 0.66 1.98 1 3 C-0.3333826 5.36881909 -1.68068973 7.48617267 -3.25 9.6875 C-3.65863281 10.29400391 -4.06726563 10.90050781 -4.48828125 11.52539062 C-5.703125 13.26171875 -5.703125 13.26171875 -8 16 C-8.99 16 -9.98 16 -11 16 C-7.37 10.72 -3.74 5.44 0 0 Z " fill="#F1F1F1" transform="translate(433,581)"/>
<path d="M0 0 C0.33 0.99 0.66 1.98 1 3 C-0.3333826 5.36881909 -1.68068973 7.48617267 -3.25 9.6875 C-3.65863281 10.29400391 -4.06726563 10.90050781 -4.48828125 11.52539062 C-5.703125 13.26171875 -5.703125 13.26171875 -8 16 C-8.99 16 -9.98 16 -11 16 C-7.37 10.72 -3.74 5.44 0 0 Z " fill="#F0F0F0" transform="translate(493,495)"/>
<path d="M0 0 C0.66 0.33 1.32 0.66 2 1 C0.37965717 3.14949538 -1.24595794 5.2946141 -2.875 7.4375 C-3.33519531 8.04916016 -3.79539062 8.66082031 -4.26953125 9.29101562 C-7.7734375 13.88671875 -7.7734375 13.88671875 -10 15 C-8.59601721 10.89889238 -6.62912962 8.01910841 -3.875 4.6875 C-3.15054687 3.80449219 -2.42609375 2.92148437 -1.6796875 2.01171875 C-1.12539063 1.34785156 -0.57109375 0.68398438 0 0 Z " fill="#EEEEEE" transform="translate(370,559)"/>
<path d="M0 0 C4.00735217 0.60110283 6.55469371 2.66602028 9.75 5.0625 C10.73484375 5.79597656 11.7196875 6.52945312 12.734375 7.28515625 C13.48203125 7.85105469 14.2296875 8.41695313 15 9 C14.67 9.99 14.34 10.98 14 12 C12.04065817 10.37620295 10.08249543 8.75102023 8.125 7.125 C7.56941406 6.66480469 7.01382813 6.20460938 6.44140625 5.73046875 C4.21769168 3.88183857 2.04599054 2.04599054 0 0 Z " fill="#E8E8E8" transform="translate(643,251)"/>
<path d="M0 0 C3.58522876 1.47065925 5.44386096 3.40065542 7.8125 6.4375 C8.43769531 7.21996094 9.06289062 8.00242187 9.70703125 8.80859375 C10.34705078 9.89333984 10.34705078 9.89333984 11 11 C10.67 11.99 10.34 12.98 10 14 C8.33041937 11.85637773 6.66423643 9.71026458 5 7.5625 C4.52304688 6.95083984 4.04609375 6.33917969 3.5546875 5.70898438 C0 1.11328125 0 1.11328125 0 0 Z " fill="#F1F1F1" transform="translate(185,685)"/>
<path d="M0 0 C-1.24669004 3.74007011 -2.68513508 4.51247157 -5.875 6.75 C-7.20144531 7.70132813 -7.20144531 7.70132813 -8.5546875 8.671875 C-9.36164063 9.11015625 -10.16859375 9.5484375 -11 10 C-11.99 9.67 -12.98 9.34 -14 9 C-12.04594482 7.49412261 -10.08718716 5.99521356 -8.125 4.5 C-7.56941406 4.07074219 -7.01382812 3.64148438 -6.44140625 3.19921875 C-2.2265625 0 -2.2265625 0 0 0 Z " fill="#E5E5E5" transform="translate(422,670)"/>
<path d="M0 0 C1 3 1 3 -0.328125 5.69921875 C-1.27945313 7.17841797 -1.27945313 7.17841797 -2.25 8.6875 C-3.18585938 10.17830078 -3.18585938 10.17830078 -4.140625 11.69921875 C-4.75421875 12.45847656 -5.3678125 13.21773437 -6 14 C-6.99 14 -7.98 14 -9 14 C-6.03 9.38 -3.06 4.76 0 0 Z " fill="#EEEEEE" transform="translate(130,151)"/>
<path d="M0 0 C0.33 0.99 0.66 1.98 1 3 C-0.43359375 5.26171875 -0.43359375 5.26171875 -2.4375 7.6875 C-3.09621094 8.49574219 -3.75492187 9.30398438 -4.43359375 10.13671875 C-5.20896484 11.05904297 -5.20896484 11.05904297 -6 12 C-6.99 11.67 -7.98 11.34 -9 11 C-6.03 7.37 -3.06 3.74 0 0 Z " fill="#E0E0E0" transform="translate(379,547)"/>
<path d="M0 0 C3.43950364 0.61198376 5.51564485 1.92058847 8.25 4.0625 C8.95640625 4.61035156 9.6628125 5.15820312 10.390625 5.72265625 C11.18726563 6.35494141 11.18726563 6.35494141 12 7 C11.67 7.99 11.34 8.98 11 10 C9.16375669 8.52444734 7.3310715 7.04446569 5.5 5.5625 C4.4790625 4.73878906 3.458125 3.91507812 2.40625 3.06640625 C1.6121875 2.38449219 0.818125 1.70257813 0 1 C0 0.67 0 0.34 0 0 Z " fill="#E3E3E3" transform="translate(438,90)"/>
<path d="M0 0 C0.66 0.33 1.32 0.66 2 1 C-0.64 4.3 -3.28 7.6 -6 11 C-6.99 10.67 -7.98 10.34 -9 10 C-8.01 9.67 -7.02 9.34 -6 9 C-5.29605388 7.68596724 -4.63654342 6.3479743 -4 5 C-2.6949419 3.31110128 -1.36639342 1.6396721 0 0 Z " fill="#F0F0F0" transform="translate(237,732)"/>
<path d="M0 0 C3.35882075 1.41231461 5.13329047 3.03368978 7.3125 5.9375 C8.11107422 6.97197266 8.11107422 6.97197266 8.92578125 8.02734375 C9.28027344 8.67832031 9.63476562 9.32929687 10 10 C9.67 10.99 9.34 11.98 9 13 C7.49710267 11.02297434 5.99758658 9.0435417 4.5 7.0625 C4.07074219 6.49853516 3.64148438 5.93457031 3.19921875 5.35351562 C0 1.11328125 0 1.11328125 0 0 Z " fill="#F1F1F1" transform="translate(87,558)"/>
<path d="M0 0 C3.43950364 0.61198376 5.51564485 1.92058847 8.25 4.0625 C8.95640625 4.61035156 9.6628125 5.15820312 10.390625 5.72265625 C11.18726563 6.35494141 11.18726563 6.35494141 12 7 C11.67 7.99 11.34 8.98 11 10 C9.16375669 8.52444734 7.3310715 7.04446569 5.5 5.5625 C4.4790625 4.73878906 3.458125 3.91507812 2.40625 3.06640625 C1.6121875 2.38449219 0.818125 1.70257813 0 1 C0 0.67 0 0.34 0 0 Z " fill="#E5E5E5" transform="translate(771,351)"/>
<path d="M0 0 C3.43950364 0.61198376 5.51564485 1.92058847 8.25 4.0625 C8.95640625 4.61035156 9.6628125 5.15820312 10.390625 5.72265625 C11.18726563 6.35494141 11.18726563 6.35494141 12 7 C11.67 7.99 11.34 8.98 11 10 C9.16375669 8.52444734 7.3310715 7.04446569 5.5 5.5625 C4.4790625 4.73878906 3.458125 3.91507813 2.40625 3.06640625 C1.6121875 2.38449219 0.818125 1.70257813 0 1 C0 0.67 0 0.34 0 0 Z " fill="#E4E4E4" transform="translate(563,188)"/>
<path d="M0 0 C4.40824473 2.90299043 8.71640781 5.91581363 13 9 C12.01 9.33 11.02 9.66 10 10 C7.51953125 8.41796875 7.51953125 8.41796875 4.8125 6.1875 C3.91144531 5.45917969 3.01039063 4.73085937 2.08203125 3.98046875 C1.39496094 3.32691406 0.70789063 2.67335937 0 2 C0 1.34 0 0.68 0 0 Z " fill="#EFEFEF" transform="translate(552,178)"/>
<path d="M0 0 C4.27454425 2.7479213 8.14126153 5.69250989 12 9 C11.01 9.495 11.01 9.495 10 10 C8.32756598 8.71580959 6.66218553 7.42242815 5 6.125 C3.6078125 5.04605469 3.6078125 5.04605469 2.1875 3.9453125 C1.465625 3.30335938 0.74375 2.66140625 0 2 C0 1.34 0 0.68 0 0 Z " fill="#F1F0F1" transform="translate(709,301)"/>
<path d="M0 0 C4.27454425 2.7479213 8.14126153 5.69250989 12 9 C11.01 9.495 11.01 9.495 10 10 C8.32756598 8.71580959 6.66218553 7.42242815 5 6.125 C3.6078125 5.04605469 3.6078125 5.04605469 2.1875 3.9453125 C1.465625 3.30335938 0.74375 2.66140625 0 2 C0 1.34 0 0.68 0 0 Z " fill="#F3F2F3" transform="translate(658,261)"/>
<path d="M0 0 C4.20969919 1.50346399 5.91860139 4.14555814 8 8 C7.60546875 10.1953125 7.60546875 10.1953125 7 12 C5.83061933 10.18924982 4.66456267 8.37635257 3.5 6.5625 C2.8503125 5.55316406 2.200625 4.54382813 1.53125 3.50390625 C0 1 0 1 0 0 Z " fill="#E3E3E3" transform="translate(326,149)"/>
<path d="M0 0 C4.27454425 2.7479213 8.14126153 5.69250989 12 9 C11.01 9.495 11.01 9.495 10 10 C8.32756598 8.71580959 6.66218553 7.42242815 5 6.125 C3.6078125 5.04605469 3.6078125 5.04605469 2.1875 3.9453125 C1.465625 3.30335937 0.74375 2.66140625 0 2 C0 1.34 0 0.68 0 0 Z " fill="#F2F2F2" transform="translate(450,98)"/>
<path d="M0 0 C0.99 0.33 1.98 0.66 3 1 C1.92892883 1.86949317 0.84254056 2.72014205 -0.25 3.5625 C-0.85328125 4.03816406 -1.4565625 4.51382813 -2.078125 5.00390625 C-4 6 -4 6 -6.234375 5.65234375 C-6.81703125 5.43707031 -7.3996875 5.22179687 -8 5 C-6.68 3.68 -5.36 2.36 -4 1 C-4 1.66 -4 2.32 -4 3 C-3.401875 2.484375 -2.80375 1.96875 -2.1875 1.4375 C-1.465625 0.963125 -0.74375 0.48875 0 0 Z " fill="#FBFAFB" transform="translate(329,737)"/>
<path d="M0 0 C0.33 0.99 0.66 1.98 1 3 C0.00390625 4.75390625 0.00390625 4.75390625 -1.4375 6.5625 C-3.52365977 8.98756917 -3.52365977 8.98756917 -4 12 C-4.66 12 -5.32 12 -6 12 C-5.54300722 6.97307937 -3.00758252 3.85103739 0 0 Z " fill="#E6E5E6" transform="translate(331,728)"/>
<path d="M0 0 C3.63559661 3.43361902 6.36113346 6.7973607 9 11 C8.01 11 7.02 11 6 11 C4.39453125 9.35546875 4.39453125 9.35546875 2.8125 7.1875 C2.28269531 6.47980469 1.75289062 5.77210938 1.20703125 5.04296875 C0 3 0 3 0 0 Z " fill="#E0E0E0" transform="translate(205,709)"/>
<path d="M0 0 C-3.96 1.98 -7.92 3.96 -12 6 C-9.17898441 0.35796882 -6.22827716 -1.55706929 0 0 Z " fill="#E2E2E2" transform="translate(437,459)"/>
<path d="M0 0 C0.33 0.99 0.66 1.98 1 3 C-0.21484375 5.26171875 -0.21484375 5.26171875 -1.9375 7.6875 C-2.78634766 8.89986328 -2.78634766 8.89986328 -3.65234375 10.13671875 C-4.09707031 10.75160156 -4.54179688 11.36648437 -5 12 C-5.66 11.67 -6.32 11.34 -7 11 C-4.69 7.37 -2.38 3.74 0 0 Z " fill="#F1F1F1" transform="translate(109,183)"/>
<path d="M0 0 C2.96175123 0.61277612 4.38058783 1.25372522 7 3 C6 5 6 5 4 8 C0 2.25 0 2.25 0 0 Z " fill="#FAF9FA" transform="translate(323,0)"/>
<path d="M0 0 C3.45925163 1.2491742 6.14693203 2.67527795 9 5 C7.68 5 6.36 5 5 5 C4.67 5.66 4.34 6.32 4 7 C0 2.25 0 2.25 0 0 Z " fill="#FBFAFB" transform="translate(0,444)"/>
<path d="M0 0 C0.99 0 1.98 0 3 0 C4.38671875 1.6796875 4.38671875 1.6796875 5.6875 3.875 C6.12449219 4.59429687 6.56148438 5.31359375 7.01171875 6.0546875 C8 8 8 8 8 10 C7.34 10 6.68 10 6 10 C4.4921875 7.8125 4.4921875 7.8125 2.875 5 C2.33617187 4.071875 1.79734375 3.14375 1.2421875 2.1875 C0.83226562 1.465625 0.42234375 0.74375 0 0 Z " fill="#E5E5E5" transform="translate(415,286)"/>
<path d="M0 0 C0.99 0.33 1.98 0.66 3 1 C-0.63 3.31 -4.26 5.62 -8 8 C-5.79795605 3.59591211 -4.23481604 2.33347006 0 0 Z " fill="#F2F2F2" transform="translate(366,710)"/>
<path d="M0 0 C3.32368224 1.10789408 3.61563093 1.48436217 5.25 4.375 C5.60578125 4.98085938 5.9615625 5.58671875 6.328125 6.2109375 C7 8 7 8 6 11 C4.9944239 9.54550599 3.99569565 8.08627557 3 6.625 C2.443125 5.81289063 1.88625 5.00078125 1.3125 4.1640625 C0 2 0 2 0 0 Z " fill="#E7E7E7" transform="translate(402,265)"/>
<path d="M0 0 C3.25524265 3.02272532 5.61820737 6.25718301 8 10 C7.01 10 6.02 10 5 10 C3.61328125 8.57421875 3.61328125 8.57421875 2.3125 6.6875 C1.87550781 6.07261719 1.43851563 5.45773437 0.98828125 4.82421875 C0 3 0 3 0 0 Z " fill="#E7E6E7" transform="translate(142,627)"/>
<path d="M0 0 C0 0.66 0 1.32 0 2 C-1.42578125 3.32421875 -1.42578125 3.32421875 -3.3125 4.6875 C-3.92738281 5.14511719 -4.54226563 5.60273437 -5.17578125 6.07421875 C-5.77777344 6.37972656 -6.37976563 6.68523438 -7 7 C-7.99 6.67 -8.98 6.34 -10 6 C-8.71283353 4.99421411 -7.42011342 3.99553202 -6.125 3 C-5.40570312 2.443125 -4.68640625 1.88625 -3.9453125 1.3125 C-2 0 -2 0 0 0 Z " fill="#E6E5E6" transform="translate(536,587)"/>
<path d="M0 0 C0.66 0 1.32 0 2 0 C2.9765625 1.72526042 3.953125 3.45052083 4.9296875 5.17578125 C5.89428581 6.81982289 6.94267059 8.41400588 8 10 C7.01 10 6.02 10 5 10 C1.93193534 6.84169815 0.50057152 4.38000076 0 0 Z " fill="#DCDCDC" transform="translate(4,448)"/>
<path d="M0 0 C3.74281699 2.38179263 6.97727468 4.74475735 10 8 C5.60249328 7.49259538 3.13051078 4.91706686 0 2 C0 1.34 0 0.68 0 0 Z " fill="#F3F3F3" transform="translate(746,330)"/>
<path d="M0 0 C4.18199633 2.09099816 4.99659367 2.99318733 7 7 C7 7.66 7 8.32 7 9 C6.34 9 5.68 9 5 9 C3.35 6.03 1.7 3.06 0 0 Z " fill="#E3E3E3" transform="translate(298,106)"/>
<path d="M0 0 C0.33 0.99 0.66 1.98 1 3 C0.00390625 4.82421875 0.00390625 4.82421875 -1.4375 6.6875 C-1.91058594 7.31011719 -2.38367188 7.93273437 -2.87109375 8.57421875 C-3.24363281 9.04472656 -3.61617187 9.51523438 -4 10 C-4.33 9.01 -4.66 8.02 -5 7 C-4.00390625 5.17578125 -4.00390625 5.17578125 -2.5625 3.3125 C-2.08941406 2.68988281 -1.61632812 2.06726563 -1.12890625 1.42578125 C-0.75636719 0.95527344 -0.38382813 0.48476562 0 0 Z " fill="#E5E5E5" transform="translate(175,83)"/>
<path d="M0 0 C4.21912747 0.4794463 6.79663178 1.16625119 10 4 C9.67 4.66 9.34 5.32 9 6 C6.03 4.35 3.06 2.7 0 1 C0 0.67 0 0.34 0 0 Z " fill="#E3E3E3" transform="translate(7,449)"/>
<path d="M0 0 C0 0.99 0 1.98 0 3 C-2.3125 5.25 -2.3125 5.25 -5 7 C-5.99 6.67 -6.98 6.34 -8 6 C-5.36 4.02 -2.72 2.04 0 0 Z " fill="#E3E3E3" transform="translate(338,730)"/>
<path d="M0 0 C0 0.99 0 1.98 0 3 C-2.3125 5.25 -2.3125 5.25 -5 7 C-5.99 6.67 -6.98 6.34 -8 6 C-5.36 4.02 -2.72 2.04 0 0 Z " fill="#E4E4E4" transform="translate(508,606)"/>
<path d="M0 0 C0 0.99 0 1.98 0 3 C-2.3125 5.25 -2.3125 5.25 -5 7 C-5.99 6.67 -6.98 6.34 -8 6 C-5.36 4.02 -2.72 2.04 0 0 Z " fill="#E2E2E2" transform="translate(608,533)"/>
<path d="M0 0 C0 0.99 0 1.98 0 3 C-2.3125 5.25 -2.3125 5.25 -5 7 C-5.99 6.67 -6.98 6.34 -8 6 C-5.36 4.02 -2.72 2.04 0 0 Z " fill="#E4E4E4" transform="translate(730,444)"/>
<path d="M0 0 C3.35595828 0.59927826 5.37801226 1.84622436 8 4 C7.67 4.99 7.34 5.98 7 7 C5.83040013 6.02433888 4.66438823 5.044375 3.5 4.0625 C2.8503125 3.51722656 2.200625 2.97195313 1.53125 2.41015625 C1.0259375 1.94480469 0.520625 1.47945313 0 1 C0 0.67 0 0.34 0 0 Z " fill="#E0E0E0" transform="translate(738,325)"/>
<path d="M0 0 C0.66 0.33 1.32 0.66 2 1 C0.35 3.64 -1.3 6.28 -3 9 C-3.33 7.68 -3.66 6.36 -4 5 C-2.0625 2.25 -2.0625 2.25 0 0 Z " fill="#E0E0E0" transform="translate(20,320)"/>
<path d="M0 0 C3.35595828 0.59927826 5.37801226 1.84622436 8 4 C7.67 4.99 7.34 5.98 7 7 C5.83040013 6.02433888 4.66438823 5.044375 3.5 4.0625 C2.8503125 3.51722656 2.200625 2.97195312 1.53125 2.41015625 C1.0259375 1.94480469 0.520625 1.47945312 0 1 C0 0.67 0 0.34 0 0 Z " fill="#E4E4E4" transform="translate(521,155)"/>
<path d="M0 0 C3.35595828 0.59927826 5.37801226 1.84622436 8 4 C7.67 4.99 7.34 5.98 7 7 C5.83040013 6.02433888 4.66438823 5.044375 3.5 4.0625 C2.8503125 3.51722656 2.200625 2.97195312 1.53125 2.41015625 C1.0259375 1.94480469 0.520625 1.47945313 0 1 C0 0.67 0 0.34 0 0 Z " fill="#E2E2E2" transform="translate(461,108)"/>
<path d="M0 0 C3.35595828 0.59927826 5.37801226 1.84622436 8 4 C7.67 4.99 7.34 5.98 7 7 C5.83040013 6.02433888 4.66438823 5.044375 3.5 4.0625 C2.8503125 3.51722656 2.200625 2.97195312 1.53125 2.41015625 C1.0259375 1.94480469 0.520625 1.47945312 0 1 C0 0.67 0 0.34 0 0 Z " fill="#E3E3E3" transform="translate(350,21)"/>
<path d="M0 0 C0.66 0.33 1.32 0.66 2 1 C-0.475 4.465 -0.475 4.465 -3 8 C-3.66 7.67 -4.32 7.34 -5 7 C-3.35 4.69 -1.7 2.38 0 0 Z " fill="#F0F0F0" transform="translate(356,692)"/>
<path d="M0 0 C0.99 0 1.98 0 3 0 C5.1875 3 5.1875 3 7 6 C6.67 6.66 6.34 7.32 6 8 C4.02 5.36 2.04 2.72 0 0 Z " fill="#EFEFEF" transform="translate(103,579)"/>
<path d="M0 0 C0.66 0.33 1.32 0.66 2 1 C-0.475 4.465 -0.475 4.465 -3 8 C-3.66 7.34 -4.32 6.68 -5 6 C-3.35 4.02 -1.7 2.04 0 0 Z " fill="#E3E3E3" transform="translate(482,512)"/>
<path d="M0 0 C4.455 2.97 4.455 2.97 9 6 C8.01 6.33 7.02 6.66 6 7 C2.8125 4.6875 2.8125 4.6875 0 2 C0 1.34 0 0.68 0 0 Z " fill="#F0F0F0" transform="translate(764,344)"/>
<path d="M0 0 C2.49361571 1.20381448 4.68143083 2.45428722 7 4 C6.67 4.99 6.34 5.98 6 7 C3.95880212 5.38405168 1.95927063 3.7143618 0 2 C0 1.34 0 0.68 0 0 Z " fill="#E3E3E3" transform="translate(693,289)"/>
<path d="M0 0 C0.99 0.33 1.98 0.66 3 1 C0.525 4.465 0.525 4.465 -2 8 C-2.33 7.01 -2.66 6.02 -3 5 C-1.5625 2.3125 -1.5625 2.3125 0 0 Z " fill="#E2E2E2" transform="translate(120,166)"/>
</svg>
