<?xml version="1.0" encoding="UTF-8"?>
<svg version="1.1" xmlns="http://www.w3.org/2000/svg" width="1792" height="1792">
<path d="M0 0 C0.7622174 -0.00235223 1.5244348 -0.00470446 2.30974969 -0.00712797 C4.8546216 -0.01376578 7.39944183 -0.01336134 9.94432163 -0.01294994 C11.79114644 -0.01625182 13.63797054 -0.01997806 15.48479372 -0.02409142 C20.55320622 -0.03408261 25.62160688 -0.03782356 30.69002783 -0.04048073 C36.15925288 -0.0443923 41.62846863 -0.05396997 47.09768772 -0.0626936 C60.3018159 -0.08243292 73.50594481 -0.09252055 86.71008405 -0.10142139 C92.93261934 -0.10580803 99.15515379 -0.11117383 105.37768841 -0.11641026 C126.06983702 -0.13341925 146.76198517 -0.14793774 167.45413971 -0.155159 C168.79141237 -0.15563375 170.12868502 -0.15610964 171.46595768 -0.15658666 C172.46066468 -0.15694122 172.46066468 -0.15694122 173.47546677 -0.15730295 C176.83500389 -0.15850409 180.194541 -0.15971956 183.5540781 -0.16094494 C184.22077648 -0.16118509 184.88747485 -0.16142524 185.57437621 -0.16167267 C207.17942431 -0.16956166 228.78441745 -0.19298688 250.38944157 -0.22550088 C273.25328181 -0.25984623 296.11709808 -0.27951335 318.98096567 -0.28280324 C331.4356941 -0.28496596 343.89034171 -0.29367997 356.34504604 -0.31926441 C366.95263183 -0.34100464 377.56011716 -0.34900542 388.16772269 -0.33929763 C393.57539946 -0.33476274 398.98286908 -0.33659208 404.39051723 -0.35605907 C409.35095552 -0.37376122 414.31103663 -0.3726361 419.27147908 -0.35716178 C421.05619178 -0.3547964 422.84092968 -0.35905306 424.62560403 -0.37099043 C451.27958759 -0.53808394 474.30766531 7.80366393 493.65344334 26.32098866 C508.96866971 41.45486123 521.19887315 62.00947102 522.1815148 84.06591403 C522.18550186 85.61631214 522.18550186 85.61631214 522.18956947 87.19803143 C522.19504392 88.39781561 522.20051836 89.59759979 522.2061587 90.83374107 C522.20762586 92.79774555 522.20762586 92.79774555 522.20912266 94.80142689 C522.21369121 96.21316356 522.21869167 97.6248989 522.22408623 99.03663266 C522.23764331 102.9110103 522.24507864 106.78537918 522.25151289 110.6597743 C522.25952751 114.83967742 522.27322163 119.01956237 522.28622532 123.1994524 C522.30797299 130.43976618 522.32612373 137.6800818 522.34183025 144.92041111 C522.36454444 155.38870717 522.39268513 165.85698311 522.42214953 176.32526208 C522.46980644 193.30942442 522.51307578 210.29359499 522.55358982 227.27777576 C522.59295442 243.77615468 522.63438296 260.27452627 522.67858982 276.77289295 C522.68131409 277.7898821 522.68403837 278.80687125 522.68684519 279.85467826 C522.70052483 284.95662284 522.71424507 290.05856731 522.7279855 295.16051173 C522.84192041 337.48506626 522.94873638 379.80963662 523.05090427 422.13422108 C523.86426746 421.70862904 524.67763065 421.28303699 525.51564121 420.84454823 C528.59476207 419.23579737 531.67569242 417.630615 534.75782871 416.02765369 C536.08009937 415.33908763 537.40167818 414.64919101 538.72248936 413.95782948 C569.16218492 398.02958563 604.11617544 383.92561538 639.01561737 384 C640.16147603 383.99647165 640.16147603 383.99647165 641.33048335 383.99287203 C643.88109863 383.986234 646.43166235 383.98663867 648.9822855 383.98705006 C650.83323511 383.9837482 652.68418401 383.98002195 654.53513199 383.97590858 C659.61494606 383.96591723 664.69474832 383.96217642 669.77457082 383.95951927 C675.25606591 383.95560775 680.73755172 383.94603008 686.21904087 383.9373064 C699.4528319 383.91756695 712.68662367 383.90747943 725.92042574 383.89857861 C732.1569078 383.89419199 738.39338902 383.88882619 744.62987041 383.88358974 C765.36834217 383.86658074 786.10681347 383.85206224 806.84529114 383.844841 C808.18556138 383.84436625 809.52583162 383.84389036 810.86610186 383.84341334 C811.86303876 383.84305878 811.86303876 383.84305878 812.88011579 383.84269705 C816.24718526 383.84149591 819.61425473 383.84028044 822.9813242 383.83905506 C823.64951741 383.83881491 824.31771063 383.83857476 825.00615213 383.83832733 C846.65970198 383.83043832 868.313197 383.80701306 889.96672292 383.77449912 C912.88179091 383.74015398 935.7968368 383.72048667 958.71193272 383.71719676 C971.19460674 383.71503402 983.67720013 383.70631974 996.15985012 383.68073559 C1006.79122442 383.65899564 1017.42249848 383.65099445 1028.05389249 383.66070237 C1033.47372067 383.66523734 1038.89334218 383.66340745 1044.31314182 383.64394093 C1049.28468238 383.62623937 1054.25586656 383.62736343 1059.22741128 383.64283822 C1061.01616163 383.64520369 1062.80493712 383.64094647 1064.5936492 383.62900957 C1091.26165742 383.46221137 1114.29573112 391.7922408 1133.65344334 410.32098866 C1149.10697688 425.59153065 1161.81024773 446.78896154 1162.17746611 469.15204098 C1162.18329329 470.71776304 1162.18366924 472.28351128 1162.17970544 473.84923917 C1162.18148045 474.72005221 1162.18325546 475.59086524 1162.18508426 476.48806655 C1162.18983338 479.42014844 1162.18744902 482.35218132 1162.18512535 485.28426552 C1162.18707804 487.4110776 1162.1894668 489.53788932 1162.19225332 491.66470048 C1162.19866678 497.54201965 1162.19881387 503.41932518 1162.19797591 509.29664718 C1162.19814515 515.67844157 1162.2040483 522.06023104 1162.20921677 528.44202298 C1162.21746639 539.63815786 1162.22196854 550.83428931 1162.22394276 562.03042698 C1162.22607082 574.04631254 1162.2303297 586.06219445 1162.23718548 598.07807827 C1162.23761609 598.83652854 1162.23804671 599.59497881 1162.23849037 600.37641243 C1162.24024871 603.46539669 1162.24201835 606.55438094 1162.24380339 609.64336519 C1162.26540564 647.09880032 1162.2762826 684.55423617 1162.28527963 722.0096761 C1162.28821345 734.15563246 1162.29158332 746.30158865 1162.29524684 758.44754481 C1162.29550513 759.30436781 1162.29576342 760.1611908 1162.29602954 761.04397813 C1162.29707576 764.51037595 1162.29812419 767.97677376 1162.29917536 771.44317158 C1162.31714061 830.73863951 1162.33251956 890.03410772 1162.33993439 949.32957798 C1162.34051836 953.98744331 1162.34111563 958.64530864 1162.34171201 963.30317397 C1162.34183013 964.22714724 1162.34194825 965.15112051 1162.34206995 966.10309297 C1162.34326734 975.46425114 1162.3444761 984.82540931 1162.34570248 994.18656748 C1162.34594771 996.06350811 1162.34619157 997.94044875 1162.34643405 999.81738938 C1162.35422319 1060.09335724 1162.37660498 1120.36930563 1162.40911048 1180.64526498 C1162.43245757 1223.95309967 1162.45400858 1267.26093049 1162.46111679 1310.56877136 C1162.46126381 1311.45951188 1162.46141083 1312.3502524 1162.46156231 1313.26798505 C1162.46474722 1332.82256803 1162.46679805 1352.37715098 1162.46778986 1371.93173419 C1162.46820459 1379.79987566 1162.46875949 1387.66801711 1162.46935177 1395.53615856 C1162.46944277 1396.8278322 1162.46944277 1396.8278322 1162.46953561 1398.14560026 C1162.47155122 1425.8786418 1162.48578686 1453.61166035 1162.50629677 1481.34469387 C1162.52688461 1509.28220466 1162.53476824 1537.21968888 1162.52521901 1565.15720649 C1162.52390059 1569.01978836 1162.52272254 1572.88237026 1162.52162838 1576.7449522 C1162.52140853 1577.50210877 1162.52118868 1578.25926533 1162.52096217 1579.03936604 C1162.51785068 1591.01707054 1162.52816334 1602.99472414 1162.54410393 1614.97241685 C1162.55950809 1626.75703066 1162.56025616 1638.5415686 1162.54655569 1650.32618506 C1162.53964307 1656.62737605 1162.53904441 1662.92839224 1162.55611578 1669.2295678 C1162.57153325 1674.96701918 1162.56838374 1680.70415544 1162.5507055 1686.44159756 C1162.54756722 1688.49942145 1162.55106701 1690.55726953 1162.56219725 1692.61506571 C1162.70718006 1721.29871595 1154.35550979 1745.0237993 1134.05090427 1765.57172108 C1118.07906865 1781.20490863 1096.70667291 1792.24937354 1073.97736567 1792.26302224 C1073.28432603 1792.26479725 1072.59128639 1792.26657226 1071.87724554 1792.26840106 C1069.55111286 1792.27313826 1067.22504226 1792.27076873 1064.89890671 1792.26844215 C1063.20868407 1792.27039546 1061.51846189 1792.27278445 1059.82824042 1792.27557012 C1055.16312746 1792.28197596 1050.49803171 1792.28213128 1045.83291519 1792.28129272 C1040.76517339 1792.2814621 1035.69743777 1792.28736695 1030.62969905 1792.29253358 C1020.56913033 1792.30186631 1010.508566 1792.30578276 1000.44799349 1792.30805254 C988.40104333 1792.31101287 976.35409903 1792.31970929 964.30715194 1792.32846682 C935.18668512 1792.34931933 906.06621758 1792.3597858 876.94574535 1792.36859643 C867.30132437 1792.37153068 857.65690361 1792.37490061 848.01248288 1792.37856364 C847.33203189 1792.37882193 846.65158089 1792.37908022 845.95051017 1792.37934634 C843.19758677 1792.38039258 840.44466338 1792.381441 837.69173999 1792.38249216 C790.59971712 1792.40045745 743.50769389 1792.4158358 696.41566807 1792.4232512 C692.71673335 1792.42383516 689.01779864 1792.42443243 685.31886392 1792.42502881 C684.21824367 1792.42520599 684.21824367 1792.42520599 683.09538868 1792.42538675 C675.66157678 1792.42658413 668.2277649 1792.42779289 660.79395301 1792.42901928 C659.30345885 1792.42926452 657.81296469 1792.42950837 656.32247053 1792.42975085 C608.46312368 1792.43753896 560.60380137 1792.45991846 512.74446524 1792.49242728 C478.35605933 1792.515778 443.96765831 1792.53732712 409.57924461 1792.54443359 C408.87178311 1792.54458061 408.16432161 1792.54472764 407.43542188 1792.54487911 C391.90349343 1792.5480642 376.37156502 1792.55011491 360.83963628 1792.55110666 C354.58988186 1792.55152139 348.34012745 1792.55207628 342.09037304 1792.55266857 C341.06439358 1792.55275957 341.06439358 1792.55275957 340.01768726 1792.55285242 C317.99923536 1792.55486712 295.98081245 1792.56909611 273.96237066 1792.58961357 C251.15999271 1792.61078613 228.35764381 1792.61754211 205.5552552 1792.60773978 C192.41245354 1792.60252181 179.26976694 1792.60841643 166.12698183 1792.63027446 C157.3448768 1792.64377652 148.56285101 1792.64271072 139.7807452 1792.6298725 C134.77879104 1792.62297203 129.77705693 1792.62231955 124.77512237 1792.63943259 C120.21655972 1792.6549013 115.65839282 1792.65164708 111.09984149 1792.63402231 C109.46878145 1792.63089571 107.83769063 1792.63434016 106.20666586 1792.64551405 C79.17722654 1792.81849198 56.1125368 1783.27359756 36.80090427 1764.44672108 C14.08538581 1741.43256239 9.40142387 1714.7853191 9.58664179 1683.54457963 C9.60411753 1679.83864287 9.59805606 1676.13272902 9.59503269 1672.42676258 C9.59294788 1666.02525487 9.60536492 1659.6239118 9.62798405 1653.22244549 C9.66066482 1643.96733416 9.67092739 1634.71230143 9.67593601 1625.45713867 C9.68466363 1610.43677545 9.71120998 1595.41649974 9.74914646 1580.39618397 C9.78593245 1565.81611026 9.81421186 1551.23606042 9.83117771 1536.65594959 C9.83222861 1535.75535623 9.8332795 1534.85476287 9.83436224 1533.9268788 C9.83958286 1529.40830615 9.84463758 1524.88973332 9.84960985 1520.37116039 C9.89099289 1482.95878554 9.96137174 1445.54651016 10.05090427 1408.13422108 C8.87453248 1408.13573996 7.69816069 1408.13725884 6.48614126 1408.13882375 C-45.37898336 1408.20552594 -97.24411155 1408.26723335 -149.10926723 1408.30359364 C-149.89496355 1408.30414586 -150.68065987 1408.30469809 -151.49016516 1408.30526705 C-168.56706763 1408.31723978 -185.64397057 1408.32832035 -202.72087422 1408.33848239 C-211.09585766 1408.34347157 -219.47084098 1408.34865781 -227.84582424 1408.35394764 C-228.6792184 1408.35447068 -229.51261256 1408.35499371 -230.37126109 1408.3555326 C-257.36496428 1408.37256609 -284.35863388 1408.40260244 -311.35231673 1408.43940996 C-339.10088259 1408.47717793 -366.84942988 1408.50177157 -394.59802101 1408.50988104 C-398.52082765 1408.51103359 -402.44363422 1408.51233614 -406.36644077 1408.51373005 C-407.1384757 1408.51399974 -407.91051063 1408.51426943 -408.70594055 1408.5145473 C-421.11402279 1408.51926698 -433.52204747 1408.53779977 -445.93010628 1408.56154921 C-458.4162445 1408.58515146 -470.90232588 1408.59407969 -483.3884856 1408.58822659 C-490.14897504 1408.58545942 -496.90928617 1408.58956536 -503.66974735 1408.61104298 C-509.86655885 1408.63058561 -516.06308955 1408.6314409 -522.25991429 1408.61781666 C-524.49439337 1408.61613412 -526.72889037 1408.62114242 -528.96333449 1408.63375381 C-558.13725512 1408.78875666 -582.08904768 1401.02686968 -603.19909573 1380.44672108 C-625.58114767 1357.77041299 -630.58916926 1331.40841838 -630.46296594 1300.57238744 C-630.45271777 1296.97163671 -630.46589849 1293.37095314 -630.47593927 1289.77021223 C-630.49031863 1283.47378459 -630.48998958 1277.17749439 -630.47975063 1270.8810606 C-630.46456567 1261.51739652 -630.47238426 1252.1538475 -630.48458386 1242.79018409 C-630.50560983 1226.06078179 -630.50383562 1209.33144073 -630.49226821 1192.60203265 C-630.4821924 1177.95718777 -630.47958547 1163.3123653 -630.48435879 1148.66751766 C-630.48466433 1147.69479475 -630.48496987 1146.72207184 -630.48528467 1145.71987247 C-630.4865301 1141.77085672 -630.48780371 1137.82184097 -630.48912372 1133.87282524 C-630.50135274 1096.84592478 -630.49027819 1059.81906322 -630.46873613 1022.79216876 C-630.449765 989.93456703 -630.45144424 957.07702734 -630.4705801 924.21942616 C-630.49202765 887.26933531 -630.50047488 850.31927885 -630.48813105 813.36918265 C-630.48684827 809.42533339 -630.4855969 805.48148412 -630.48435879 801.53763485 C-630.48404248 800.56662242 -630.48372617 799.59560999 -630.48340027 798.59517294 C-630.47886131 783.96852536 -630.48415128 769.34190272 -630.494277 754.7152586 C-630.50574363 738.06908828 -630.5027924 721.42298856 -630.48115402 704.77682697 C-630.46945908 695.47467674 -630.46856887 686.17267962 -630.48373872 676.87053355 C-630.49277362 670.63993947 -630.48700943 664.40946694 -630.46971965 658.17889073 C-630.46029576 654.64016628 -630.45675612 651.10174364 -630.47134358 647.56302976 C-630.53930302 626.42576228 -628.7852276 605.97925203 -622.76159573 585.63422108 C-622.31505642 584.09653065 -622.31505642 584.09653065 -621.85949612 582.52777576 C-613.3244683 553.84797543 -601.07229683 525.76296628 -583.94909573 501.13422108 C-583.54884182 500.55446522 -583.14858791 499.97470936 -582.7362051 499.37738514 C-572.52047842 484.74992641 -559.37800075 472.41511236 -546.80691433 459.85159779 C-545.07818765 458.12028309 -543.34967429 456.38875536 -541.62135446 454.65703452 C-537.39008769 450.41858481 -533.15652787 446.18243786 -528.92194808 441.94729908 C-523.84397186 436.86840348 -518.76888088 431.78662837 -513.69381787 426.70482205 C-501.43630187 414.43130661 -489.17376441 402.1628133 -476.91064328 389.89489871 C-471.10516637 384.08708088 -465.30032077 378.27863222 -459.49554929 372.47010934 C-439.60786628 352.56959941 -419.71913116 332.67014185 -399.82676029 312.77431774 C-398.58002034 311.52735616 -397.33328046 310.2803945 -396.08654066 309.03343276 C-394.83689111 307.78356257 -393.58724148 306.53369245 -392.33759177 305.28382242 C-389.83081243 302.77660054 -387.32403539 300.26937638 -384.81725979 297.76215076 C-383.88496858 296.82969547 -383.88496858 296.82969547 -382.93384321 295.8784027 C-362.77063468 275.7115617 -342.61358469 255.53858011 -322.46021077 235.36191138 C-301.12908718 214.0061769 -279.79251607 192.65590021 -258.44968069 171.31187022 C-256.10591277 168.96793086 -253.76216685 166.62396952 -251.418437 164.2799921 C-250.84138496 163.70288429 -250.26433291 163.12577647 -249.66979443 162.53118054 C-240.3977176 153.25795475 -231.13057963 143.9798086 -221.8652119 134.69987995 C-212.55067906 125.37096226 -203.23056852 116.04764593 -193.90482594 106.72993396 C-188.37048141 101.20003534 -182.84030247 95.66604763 -177.31612377 90.12599328 C-173.1835159 85.98244384 -169.04303352 81.84682587 -164.8995295 77.71417089 C-163.2301283 76.0467247 -161.56323439 74.37676349 -159.89918216 72.70397918 C-148.4548617 61.20343837 -136.8942058 50.8763738 -123.07409573 42.25922108 C-122.28003323 41.76365711 -121.48597073 41.26809315 -120.66784573 40.75751209 C-85.78869446 19.3461136 -41.72099243 -0.08912949 0 0 Z M10.05090427 128.13422108 C10.02512302 159.04980701 9.99934177 189.96539295 9.97277927 221.81781483 C9.94761834 241.38227389 9.92147882 260.94672427 9.89074802 280.5111742 C9.87465642 290.78859888 9.85881303 301.0660239 9.84338474 311.34344959 C9.8414408 312.63150684 9.83949686 313.91956409 9.83749402 315.24665338 C9.80649743 336.02468448 9.78950551 356.80270453 9.77771005 377.58075439 C9.7652866 398.91437202 9.73775819 420.24793185 9.69629121 441.58151299 C9.67119009 454.73895791 9.65778453 467.89630695 9.6594747 481.05377615 C9.65950452 490.08385515 9.64482457 499.11383668 9.61873999 508.14387768 C9.60413369 513.34895458 9.59585705 518.55383162 9.60510159 523.75892544 C9.61343963 528.53467603 9.60309457 533.31002652 9.57856765 538.08571804 C9.57292305 539.80336237 9.57383816 541.52104513 9.58239183 543.23867743 C9.70584164 570.37716187 0.66339449 593.7107266 -18.44909573 613.07172108 C-34.39633825 628.65238683 -55.84786431 639.22698441 -78.41846943 639.27288628 C-79.153348 639.27572901 -79.88822657 639.27857175 -80.64537419 639.28150063 C-83.10794407 639.28982412 -85.57046673 639.29111491 -88.03304958 639.29243946 C-89.8117118 639.29699769 -91.59037296 639.30198936 -93.36903286 639.30737782 C-98.26751924 639.32095712 -103.16599873 639.32835979 -108.06449899 639.33479257 C-113.42394355 639.34292671 -118.78337379 639.35679707 -124.14280796 639.36994553 C-134.5500696 639.39461694 -144.95733465 639.41420701 -155.36461002 639.43203076 C-167.4006764 639.45286264 -179.43672309 639.47999939 -191.47277737 639.50714588 C-223.25653902 639.57571084 -255.04031872 639.63568838 -286.82409573 639.69672108 C-357.81534573 639.84109608 -428.80659573 639.98547108 -501.94909573 640.13422108 C-501.94909573 851.33422108 -501.94909573 1062.53422108 -501.94909573 1280.13422108 C-332.98909573 1280.13422108 -164.02909573 1280.13422108 10.05090427 1280.13422108 C10.22133088 1191.04147953 10.22133088 1191.04147953 10.34875584 1101.9486742 C10.39416599 1084.66449451 10.39416599 1084.66449451 10.42047215 1076.55695057 C10.43738466 1070.92964078 10.44367078 1065.30244694 10.4424448 1059.67511463 C10.44106415 1053.16418244 10.4537937 1046.65344833 10.48294316 1040.14257881 C10.4973917 1036.82148211 10.50390352 1033.50094134 10.49672842 1030.17978477 C10.45783387 1009.54563807 12.35961499 989.49004102 18.23840427 969.63422108 C18.68494358 968.09653065 18.68494358 968.09653065 19.14050388 966.52777576 C27.6755317 937.84797543 39.92770317 909.76296628 57.05090427 885.13422108 C57.45115818 884.55446522 57.85141209 883.97470936 58.2637949 883.37738514 C66.83262468 871.10804709 76.70341764 860.88587852 88.55427752 851.86811412 C91.19102508 849.85969496 93.80589415 847.82346099 96.42319176 845.78979946 C97.84557934 844.68500033 99.26889274 843.58139225 100.69307926 842.47891309 C146.51261115 807.0044094 190.44768764 769.36386954 233.386756 730.46687502 C235.28506481 728.74763258 237.18447002 727.02959996 239.084979 725.31278998 C332.94850485 640.5176059 406.49887189 561.28966936 415.05871677 430.50531483 C415.27909219 427.3391873 415.49962474 424.17307346 415.72188815 421.00707789 C421.75325433 323.87528486 404.05897132 223.19507242 394.05090427 128.13422108 C267.33090427 128.13422108 140.61090427 128.13422108 10.05090427 128.13422108 Z M-123.71050262 218.76978683 C-124.21310345 219.27093422 -124.71570428 219.77208161 -125.23353544 220.28841528 C-126.939625 221.99081664 -128.64208469 223.69680392 -130.3446188 225.40276051 C-131.57033516 226.62732616 -132.79626967 227.85167349 -134.02240509 229.07581955 C-137.40867998 232.45789418 -140.79179737 235.84311232 -144.1744293 239.22882998 C-147.81614751 242.87279926 -151.46072756 246.5139042 -155.104949 250.15536976 C-162.25045264 257.29641355 -169.39323395 264.44017443 -176.53506131 271.58489471 C-182.33650353 277.38859012 -188.13891474 283.19131506 -193.942029 288.99333858 C-194.7661758 289.81733215 -195.5903226 290.64132572 -196.43944354 291.49028878 C-198.11338876 293.1639143 -199.78733624 294.83753756 -201.46128594 296.51115859 C-217.17874052 312.22575775 -232.89312163 327.94342748 -248.60646468 343.66213769 C-262.10590251 357.16604363 -275.60796021 370.6673254 -289.11193752 384.16669178 C-304.77222588 399.82163547 -320.43089946 415.47819138 -336.08697838 431.1373449 C-337.75464288 432.80532797 -339.42230949 434.47330895 -341.08997822 436.1412878 C-341.91062398 436.96208784 -342.73126974 437.78288788 -343.57678356 438.62856064 C-349.37575607 444.42839863 -355.17589244 450.22707114 -360.9764719 456.02530193 C-368.0399399 463.08597293 -375.10163904 470.14840722 -382.16103692 477.21314769 C-385.76678433 480.82153347 -389.37334556 484.42909615 -392.98205662 488.03451824 C-396.27976618 491.32926759 -399.57519394 494.62628077 -402.86874639 497.92518557 C-404.06635269 499.12391724 -405.26481991 500.32178947 -406.4641915 501.51875489 C-408.082936 503.13449852 -409.6986294 504.75323004 -411.31352997 506.37281418 C-412.2152034 507.27464996 -413.11687683 508.17648575 -414.0458737 509.10564989 C-416.06313172 510.79216596 -416.06313172 510.79216596 -415.94909573 512.13422108 C-317.60909573 512.13422108 -219.26909573 512.13422108 -117.94909573 512.13422108 C-117.94909573 413.79422108 -117.94909573 315.45422108 -117.94909573 214.13422108 C-120.09432585 214.13422108 -122.36810291 217.42762879 -123.71050262 218.76978683 Z M650.05090427 512.13422108 C650.02512302 543.04980701 649.99934177 573.96539295 649.97277927 605.81781483 C649.94761834 625.38227389 649.92147882 644.94672427 649.89074802 664.5111742 C649.87465642 674.78859888 649.85881303 685.0660239 649.84338474 695.34344959 C649.8414408 696.63150684 649.83949686 697.91956409 649.83749402 699.24665338 C649.80649743 720.02468448 649.78950551 740.80270453 649.77771005 761.58075439 C649.7652866 782.91437202 649.73775819 804.24793185 649.69629121 825.58151299 C649.67119009 838.73895791 649.65778453 851.89630695 649.6594747 865.05377615 C649.65950452 874.08385515 649.64482457 883.11383668 649.61873999 892.14387768 C649.60413369 897.34895458 649.59585705 902.55383162 649.60510159 907.75892544 C649.61343963 912.53467603 649.60309457 917.31002652 649.57856765 922.08571804 C649.57292305 923.80336237 649.57383816 925.52104513 649.58239183 927.23867743 C649.70584164 954.37716187 640.66339449 977.7107266 621.55090427 997.07172108 C605.60366175 1012.65238683 584.15213569 1023.22698441 561.58153057 1023.27288628 C560.846652 1023.27572901 560.11177343 1023.27857175 559.35462581 1023.28150063 C556.89205593 1023.28982412 554.42953327 1023.29111491 551.96695042 1023.29243946 C550.1882882 1023.29699769 548.40962704 1023.30198936 546.63096714 1023.30737782 C541.73248076 1023.32095712 536.83400127 1023.32835979 531.93550101 1023.33479257 C526.57605645 1023.34292671 521.21662621 1023.35679707 515.85719204 1023.36994553 C505.4499304 1023.39461694 495.04266535 1023.41420701 484.63538998 1023.43203076 C472.5993236 1023.45286264 460.56327691 1023.47999939 448.52722263 1023.50714588 C416.74346098 1023.57571084 384.95968128 1023.63568838 353.17590427 1023.69672108 C282.18465427 1023.84109608 211.19340427 1023.98547108 138.05090427 1024.13422108 C138.05090427 1235.33422108 138.05090427 1446.53422108 138.05090427 1664.13422108 C433.73090427 1664.13422108 729.41090427 1664.13422108 1034.05090427 1664.13422108 C1034.05090427 1283.97422108 1034.05090427 903.81422108 1034.05090427 512.13422108 C907.33090427 512.13422108 780.61090427 512.13422108 650.05090427 512.13422108 Z M516.28949738 602.76978683 C515.78689655 603.27093422 515.28429572 603.77208161 514.76646456 604.28841528 C513.060375 605.99081664 511.35791531 607.69680392 509.6553812 609.40276051 C508.42966484 610.62732616 507.20373033 611.85167349 505.97759491 613.07581955 C502.59132002 616.45789418 499.20820263 619.84311232 495.8255707 623.22882998 C492.18385249 626.87279926 488.53927244 630.5139042 484.895051 634.15536976 C477.74954736 641.29641355 470.60676605 648.44017443 463.46493869 655.58489471 C457.66349647 661.38859012 451.86108526 667.19131506 446.057971 672.99333858 C445.2338242 673.81733215 444.4096774 674.64132572 443.56055646 675.49028878 C441.88661124 677.1639143 440.21266376 678.83753756 438.53871406 680.51115859 C422.82125948 696.22575775 407.10687837 711.94342748 391.39353532 727.66213769 C377.89409749 741.16604363 364.39203979 754.6673254 350.88806248 768.16669178 C335.22777412 783.82163547 319.56910054 799.47819138 303.91302162 815.1373449 C302.24535712 816.80532797 300.57769051 818.47330895 298.91002178 820.1412878 C298.08937602 820.96208784 297.26873026 821.78288788 296.42321644 822.62856064 C290.62424393 828.42839863 284.82410756 834.22707114 279.0235281 840.02530193 C271.9600601 847.08597293 264.89836096 854.14840722 257.83896308 861.21314769 C254.23321567 864.82153347 250.62665444 868.42909615 247.01794338 872.03451824 C243.72023382 875.32926759 240.42480606 878.62628077 237.13125361 881.92518557 C235.93364731 883.12391724 234.73518009 884.32178947 233.5358085 885.51875489 C231.917064 887.13449852 230.3013706 888.75323004 228.68647003 890.37281418 C227.7847966 891.27464996 226.88312317 892.17648575 225.9541263 893.10564989 C223.93686828 894.79216596 223.93686828 894.79216596 224.05090427 896.13422108 C322.39090427 896.13422108 420.73090427 896.13422108 522.05090427 896.13422108 C522.05090427 797.79422108 522.05090427 699.45422108 522.05090427 598.13422108 C519.90567415 598.13422108 517.63189709 601.42762879 516.28949738 602.76978683 Z " fill="#86869d" transform="translate(629.9490957260132,-0.13422107696533203)"/>
</svg>
